<svg xmlns="http://www.w3.org/2000/svg" xmlns:xlink="http://www.w3.org/1999/xlink" width="559" zoomAndPan="magnify" viewBox="0 0 419.25 33.749998" height="45" preserveAspectRatio="xMidYMid meet" version="1.2"><defs><clipPath id="edfb686339"><path d="M 3 2.777344 L 415 2.777344 L 415 30.109375 L 3 30.109375 Z M 3 2.777344 "/></clipPath></defs><g id="2264502330"><g clip-rule="nonzero" clip-path="url(#edfb686339)"><path style=" stroke:none;fill-rule:nonzero;fill:#c5a65a;fill-opacity:1;" d="M 197.613281 10.71875 L 56.371094 10.71875 C 41.199219 10.71875 26.058594 10.335938 10.953125 9.566406 L 3.300781 9.171875 L 10.953125 8.777344 C 26.042969 8.011719 41.183594 7.628906 56.371094 7.628906 L 197.613281 7.628906 Z M 407.023438 8.769531 C 391.933594 8 376.792969 7.617188 361.601562 7.617188 L 220.363281 7.617188 L 220.363281 10.71875 L 361.601562 10.71875 C 376.777344 10.71875 391.917969 10.335938 407.023438 9.566406 L 414.675781 9.171875 Z M 208.988281 2.796875 C 205.492188 2.796875 202.65625 5.628906 202.65625 9.125 C 202.65625 12.621094 205.492188 15.453125 208.988281 15.453125 C 212.484375 15.453125 215.316406 12.621094 215.316406 9.125 C 215.316406 5.628906 212.484375 2.796875 208.988281 2.796875 Z M 206.273438 19.226562 C 205.078125 20.421875 204.804688 22.253906 205.59375 23.746094 L 208.988281 30.148438 L 212.382812 23.746094 C 213.171875 22.253906 212.898438 20.421875 211.703125 19.226562 C 210.203125 17.734375 207.773438 17.734375 206.273438 19.226562 Z M 196.714844 13.6875 C 195.027344 13.6875 193.535156 14.789062 193.039062 16.402344 L 190.914062 23.308594 L 197.820312 21.183594 C 199.433594 20.6875 200.535156 19.195312 200.535156 17.507812 C 200.523438 15.402344 198.820312 13.699219 196.714844 13.6875 Z M 217.429688 17.53125 C 217.429688 19.21875 218.53125 20.710938 220.144531 21.207031 L 227.046875 23.332031 L 224.925781 16.425781 C 224.429688 14.8125 222.9375 13.710938 221.25 13.710938 C 219.140625 13.714844 217.429688 15.421875 217.417969 17.53125 Z M 217.429688 17.53125 "/></g></g></svg>