<svg xmlns="http://www.w3.org/2000/svg" xmlns:xlink="http://www.w3.org/1999/xlink" width="340" zoomAndPan="magnify" viewBox="0 0 255 297.749993" height="397" preserveAspectRatio="xMidYMid meet" version="1.2"><defs><clipPath id="2f9fb248d7"><path d="M 0.105469 0 L 250 0 L 250 297.5 L 0.105469 297.5 Z M 0.105469 0 "/></clipPath><clipPath id="2ef732a9b5"><path d="M 318.859375 142.773438 L 34.320312 344.941406 L -69.363281 199.007812 L 215.171875 -3.15625 Z M 318.859375 142.773438 "/></clipPath><clipPath id="3563673373"><path d="M 215.003906 -3.398438 L -69.535156 198.769531 L 34.152344 344.703125 L 318.6875 142.535156 Z M 215.003906 -3.398438 "/></clipPath></defs><g id="6021d77d32"><g clip-rule="nonzero" clip-path="url(#2f9fb248d7)"><g clip-rule="nonzero" clip-path="url(#2ef732a9b5)"><g clip-rule="nonzero" clip-path="url(#3563673373)"><path style=" stroke:none;fill-rule:nonzero;fill:#c5a65a;fill-opacity:1;" d="M 0.601562 295.980469 C 0.609375 295.570312 0.742188 295.046875 1.125 294.984375 C 2.558594 294.753906 3.648438 294.28125 3.875 292.609375 C 3.914062 292.308594 4.660156 292.027344 5.128906 291.867188 C 7.503906 291.050781 9.871094 290.042969 12.40625 289.984375 C 16.625 289.886719 20.867188 289.769531 25.0625 290.097656 C 28.066406 290.332031 30.722656 290.363281 33.734375 289.21875 C 39.253906 287.121094 45.097656 285.839844 50.601562 283.601562 C 54.019531 282.210938 57.878906 281.960938 60.902344 279.503906 C 61.519531 279.003906 62.648438 278.535156 63.386719 279.316406 C 64.96875 280.988281 66.53125 280.15625 68.042969 279.414062 C 70.304688 278.308594 72.511719 277.09375 74.707031 275.863281 C 77.925781 274.058594 81.585938 272.886719 83.730469 269.527344 C 84.058594 269.011719 84.84375 268.597656 85.300781 269.039062 C 86.453125 270.152344 87.363281 269.253906 88.261719 268.824219 C 91.078125 267.476562 93.945312 266.082031 96.183594 263.910156 C 100.488281 259.726562 106.011719 257.261719 110.53125 253.429688 C 113.28125 251.101562 117.207031 249.925781 118.21875 245.792969 C 118.34375 245.277344 118.972656 244.875 119.390625 244.441406 C 121.253906 242.484375 121.53125 242.53125 122.886719 244.976562 C 125.191406 244.28125 127.515625 243.625 129.804688 242.875 C 133.726562 241.59375 137.605469 240.199219 141.730469 239.660156 C 143.351562 239.445312 144.761719 238.714844 145.894531 237.421875 C 147.019531 236.136719 148.09375 234.839844 149.101562 233.441406 C 151.6875 229.847656 154.121094 226.179688 156.21875 222.273438 C 156.871094 221.054688 157.859375 219.972656 158.855469 218.996094 C 160.4375 217.453125 162.167969 216.066406 163.8125 214.585938 C 168.089844 210.734375 170.648438 205.675781 173.433594 200.785156 C 174.097656 199.621094 173.894531 198.605469 172.792969 197.589844 C 168.3125 193.460938 167.296875 185.742188 170.414062 180.441406 C 171.261719 179.007812 171.929688 178.921875 172.738281 180.339844 C 175.230469 184.707031 178.074219 188.992188 176.839844 194.457031 C 176.808594 194.59375 177 194.777344 177.117188 195 C 180.203125 192.011719 182.46875 188.691406 183.421875 184.347656 C 184.378906 179.996094 184.476562 175.578125 185.15625 171.21875 C 185.277344 170.433594 184.921875 169.945312 184.324219 169.433594 C 182.988281 168.285156 181.714844 167.515625 179.738281 167.75 C 177.230469 168.050781 174.597656 167.679688 172.546875 166.070312 C 170.429688 164.410156 168.585938 162.398438 166.644531 160.515625 C 166.453125 160.328125 166.296875 159.953125 166.34375 159.707031 C 166.425781 159.285156 166.828125 159.078125 167.253906 159.105469 C 168.960938 159.214844 170.664062 159.453125 172.371094 159.457031 C 176.15625 159.464844 179.015625 161.246094 180.910156 164.296875 C 181.964844 166 183.433594 166.691406 185.003906 167.597656 C 185.710938 164.742188 185.597656 164.382812 183.570312 163.042969 C 182.214844 162.140625 181.097656 161.027344 180.136719 159.695312 C 177.421875 155.953125 176.304688 151.527344 174.671875 147.320312 C 174.597656 147.136719 174.582031 146.925781 174.566406 146.726562 C 174.539062 146.421875 174.582031 146.152344 174.886719 145.96875 C 175.203125 145.777344 175.511719 145.882812 175.722656 146.066406 C 176.773438 146.992188 177.753906 147.976562 179.003906 148.6875 C 184.347656 151.714844 187.367188 156.085938 186.820312 162.488281 C 186.683594 164.09375 186.996094 165.667969 187.367188 167.542969 C 188.765625 165.847656 189.089844 164.234375 189.136719 162.644531 C 189.289062 157.71875 189.429688 152.78125 189.292969 147.855469 C 189.238281 145.910156 188.628906 143.804688 186.488281 142.929688 C 182.039062 141.113281 181.054688 137.050781 179.90625 133.070312 C 179.789062 132.667969 179.871094 132.214844 180.195312 131.964844 C 180.65625 131.609375 181.15625 131.816406 181.582031 132.117188 C 182.488281 132.753906 183.355469 133.445312 184.28125 134.046875 C 186.621094 135.570312 188.039062 137.601562 188.21875 140.46875 C 188.257812 141.039062 188.167969 141.910156 189.253906 142.226562 C 189.390625 139.5 190.199219 136.855469 189.378906 134.167969 C 187.816406 129.070312 190.101562 124.714844 192.039062 120.296875 C 192.203125 119.917969 192.503906 119.648438 192.972656 119.683594 C 193.460938 119.71875 193.667969 120.082031 193.765625 120.46875 C 195.039062 125.539062 195.996094 130.582031 192.335938 135.171875 C 191.699219 135.96875 191.113281 136.796875 191.097656 137.867188 C 191.027344 142.765625 190.683594 147.667969 191.066406 152.820312 C 192.621094 151.589844 193.03125 150.242188 192.914062 148.5 C 192.566406 143.285156 195.582031 139.628906 198.886719 136.148438 C 199.21875 135.796875 199.695312 135.507812 200.21875 135.875 C 200.734375 136.230469 200.566406 136.75 200.496094 137.242188 C 200.304688 138.535156 200.085938 139.828125 199.949219 141.128906 C 199.609375 144.355469 198.242188 146.894531 195.910156 149.285156 C 192.855469 152.410156 190.917969 156.335938 190.835938 160.902344 C 190.804688 162.625 190.734375 164.339844 190.058594 165.945312 C 188.566406 169.480469 187.800781 173.25 186.5 176.847656 C 186.164062 177.78125 185.707031 178.773438 186.339844 180.082031 C 187.019531 178.851562 187.476562 177.839844 188.097656 176.945312 C 191.445312 172.132812 194.175781 167.019531 195.988281 161.421875 C 196.304688 160.445312 196.558594 159.152344 198.191406 159.582031 C 198.378906 159.628906 198.726562 159.316406 198.902344 159.097656 C 200.28125 157.355469 201.582031 155.515625 202.199219 153.386719 C 202.75 151.5 202.347656 149.652344 200.988281 148.0625 C 200.539062 147.535156 200.347656 146.425781 201.421875 146.523438 C 202.789062 146.652344 202.574219 145.960938 202.609375 145.160156 C 202.71875 142.726562 202.414062 140.316406 201.824219 137.988281 C 201.4375 136.472656 201.097656 134.84375 200.039062 133.566406 C 199.21875 132.578125 197.433594 131.648438 200.039062 130.636719 C 200.242188 130.554688 200.230469 129.894531 200.304688 129.5 C 200.710938 127.382812 200.234375 125.320312 200.035156 123.21875 C 199.707031 119.8125 198.605469 116.464844 199.960938 112.921875 C 201.125 109.878906 198.75 106.617188 195.496094 106.183594 C 191.449219 105.636719 189.394531 102.558594 187.199219 99.695312 C 186.601562 98.917969 187.265625 98.367188 188.085938 98.292969 C 188.566406 98.253906 189.066406 98.449219 189.554688 98.5625 C 192.566406 99.246094 195.203125 100.632812 197.355469 103.015625 C 197.558594 102.269531 197.511719 101.761719 197.207031 101.335938 C 195.425781 98.847656 194.363281 96.015625 193.441406 93.148438 C 192.832031 91.246094 191.851562 90.039062 189.855469 89.523438 C 187.15625 88.824219 185.46875 86.789062 183.980469 84.578125 C 183.621094 84.042969 183.429688 83.4375 183.71875 82.871094 C 184.042969 82.234375 184.738281 82.28125 185.328125 82.375 C 188.601562 82.894531 191.207031 84.378906 192.625 87.53125 C 193.582031 89.660156 194.476562 91.824219 195.753906 93.796875 C 195.773438 93.546875 195.816406 93.289062 195.742188 93.074219 C 194.664062 90.035156 195.46875 87.109375 196.269531 84.1875 C 196.421875 83.632812 196.5625 82.945312 197.304688 82.859375 C 197.988281 82.78125 198.355469 83.292969 198.75 83.773438 C 201.265625 86.808594 201.546875 91.753906 199.296875 94.996094 C 198.882812 95.59375 198.546875 96.128906 198.496094 96.878906 C 198.226562 100.914062 199.375 104.410156 202.164062 107.414062 C 203.617188 106.363281 203.964844 104.941406 204.167969 103.585938 C 204.511719 101.265625 205.230469 99.078125 206.191406 96.976562 C 207.386719 94.355469 207.472656 91.515625 207.933594 88.757812 C 208.105469 87.722656 208.4375 85.984375 206.957031 85.617188 C 204.476562 85.007812 204.050781 83.097656 203.464844 81.171875 C 202.863281 79.183594 202.867188 77.1875 203.535156 75.234375 C 203.75 74.613281 204.042969 73.8125 204.859375 73.726562 C 205.722656 73.636719 205.96875 74.382812 206.289062 75.023438 C 207.554688 77.550781 208.753906 80.089844 208.960938 82.972656 C 209 83.503906 208.585938 84.214844 209.640625 84.570312 C 211.230469 82.625 212.386719 80.574219 211.78125 77.832031 C 211.332031 75.808594 211.679688 73.816406 212.523438 71.9375 C 213.40625 69.96875 214.859375 68.429688 216.464844 67.039062 C 217.242188 66.371094 217.804688 64.839844 219.035156 65.492188 C 220.085938 66.046875 218.945312 67.339844 219.191406 68.289062 C 219.230469 68.445312 219.382812 68.574219 219.71875 69.046875 C 220.503906 66.988281 222.289062 65.789062 221.824219 63.25 C 221.175781 59.699219 219.277344 57.355469 216.039062 56.195312 C 211.359375 54.519531 208.324219 51.261719 206.261719 46.90625 C 206.039062 46.433594 205.8125 45.941406 206.15625 45.507812 C 206.523438 45.046875 207.066406 45.207031 207.550781 45.378906 C 208.6875 45.789062 209.808594 46.25 210.960938 46.605469 C 213.070312 47.253906 214.589844 48.382812 215.660156 50.472656 C 216.617188 52.339844 217.597656 54.351562 219.285156 55.855469 C 220.03125 54.976562 219.574219 54.289062 219.449219 53.65625 C 218.539062 48.917969 217.613281 44.1875 218.015625 39.320312 C 218.023438 39.21875 218.042969 39.113281 218.023438 39.015625 C 217.472656 36.101562 217.410156 32.902344 213.355469 32.355469 C 212.171875 32.195312 211.070312 31.355469 210.421875 30.34375 C 208.964844 28.070312 207.234375 25.933594 206.496094 23.261719 C 206.335938 22.679688 206.21875 22.085938 206.113281 21.492188 C 206.042969 21.089844 206.070312 20.675781 206.4375 20.40625 C 206.921875 20.050781 207.398438 20.214844 207.808594 20.546875 C 211.300781 23.378906 215.226562 25.828125 216.550781 30.566406 C 216.695312 31.082031 216.988281 31.746094 217.847656 31.414062 C 217.617188 24.941406 216.484375 18.632812 214.480469 12.472656 C 214.171875 11.535156 214.105469 10.496094 212.785156 10.28125 C 211.800781 10.121094 211.984375 9.40625 212.167969 8.644531 C 212.835938 5.863281 212.605469 5.242188 210.054688 3.734375 C 209.128906 3.1875 209.347656 2.339844 209.214844 1.640625 C 209.078125 0.9375 209.800781 0.699219 210.460938 0.691406 C 211.296875 0.679688 211.953125 0.265625 212.664062 -0.140625 C 213.773438 -0.769531 214.347656 -0.347656 214.332031 0.90625 C 214.320312 1.734375 213.972656 2.460938 213.667969 3.210938 C 213.089844 4.621094 213.753906 6.386719 214.695312 6.605469 C 216.878906 7.101562 216.238281 8.15625 215.859375 9.421875 C 215.71875 9.886719 215.566406 10.472656 215.722656 10.886719 C 216.917969 14.054688 217.054688 17.539062 218.601562 20.597656 C 218.894531 20.285156 218.789062 19.902344 218.757812 19.535156 C 218.414062 15.597656 220.078125 12.054688 220.960938 8.359375 C 221.078125 7.863281 221.359375 7.398438 221.917969 7.304688 C 222.535156 7.203125 222.800781 7.6875 223 8.148438 C 225.453125 13.753906 225.9375 19.21875 221.585938 24.203125 C 221.074219 24.789062 220.960938 25.386719 220.71875 26.03125 C 219.175781 30.109375 219.699219 34.363281 219.625 38.558594 C 219.613281 39.253906 219.308594 40.101562 220.050781 40.773438 C 220.351562 40.097656 220.625 39.558594 220.835938 38.992188 C 222 35.898438 224.429688 33.683594 226.316406 31.09375 C 226.742188 30.507812 227.402344 30.089844 228.15625 30.417969 C 229.023438 30.796875 228.703125 31.601562 228.625 32.269531 C 228.371094 34.46875 228.089844 36.667969 227.832031 38.867188 C 227.519531 41.484375 226.320312 43.664062 224.40625 45.417969 C 221.679688 47.914062 220.476562 50.84375 221.199219 54.570312 C 221.585938 56.554688 222.144531 58.476562 222.753906 60.394531 C 223.214844 61.859375 224.539062 62.667969 225.246094 63.890625 C 226.417969 63.25 225.511719 61.894531 226.535156 61.230469 C 227.523438 64.765625 225.304688 67.855469 225.792969 71.144531 C 226.046875 71.125 226.195312 71.152344 226.230469 71.105469 C 228.222656 68.335938 227.890625 64.964844 228.554688 61.855469 C 228.671875 61.320312 228.089844 60.546875 227.683594 59.996094 C 225.277344 56.757812 226.527344 51.683594 227.722656 47.417969 C 227.769531 47.257812 227.757812 47.089844 227.777344 46.925781 C 227.9375 45.644531 228.644531 45.277344 229.867188 45.652344 C 230.613281 45.882812 230.964844 46.484375 231.421875 47.011719 C 233.015625 48.84375 233.082031 51.207031 233.753906 53.472656 C 234.203125 51.914062 234.726562 50.441406 235.792969 49.238281 C 237.203125 47.65625 238.484375 45.976562 239.582031 44.160156 C 239.886719 43.65625 240.128906 42.972656 240.871094 43.097656 C 241.820312 43.257812 241.691406 44.105469 241.726562 44.78125 C 241.972656 49.316406 240.777344 53.558594 238.960938 57.640625 C 238.429688 58.832031 237.582031 59.898438 236.160156 60.199219 C 235.503906 60.335938 235.164062 60.777344 234.808594 61.289062 C 233.148438 63.679688 231.390625 66.007812 229.792969 68.441406 C 228.695312 70.117188 228.074219 72.125 226.648438 73.5625 C 224.953125 75.269531 224.898438 77.199219 225.28125 79.464844 C 228.332031 77.5 231.609375 77.011719 234.902344 76.601562 C 235.507812 76.527344 236.144531 76.628906 236.460938 77.261719 C 236.722656 77.78125 236.492188 78.304688 236.097656 78.605469 C 232.855469 81.082031 230.65625 84.902344 226.410156 86.078125 C 225.839844 86.234375 225.109375 86.316406 225.066406 87.070312 C 224.96875 88.675781 224.34375 90.703125 225.074219 91.796875 C 226.230469 93.535156 225.578125 94.804688 225.097656 96.234375 C 224.679688 97.488281 224.46875 98.761719 224.242188 100.046875 C 223.398438 104.90625 222.832031 109.828125 221.015625 114.46875 C 220.914062 114.730469 220.820312 115.035156 221.296875 115.1875 C 221.527344 115.125 221.816406 115.0625 222.097656 114.96875 C 222.90625 114.699219 223.753906 113.75 224.554688 114.652344 C 225.300781 115.488281 224.558594 116.339844 224.066406 117.089844 C 222.859375 118.941406 221.730469 120.851562 220.398438 122.609375 C 219.085938 124.335938 219.261719 125.988281 219.972656 127.839844 C 223.304688 126.285156 225.804688 123.902344 228.554688 121.882812 C 231.3125 119.859375 232.554688 117.167969 231.589844 113.726562 C 230.597656 110.179688 231.933594 107.066406 233.972656 104.488281 C 236.085938 101.8125 238.648438 99.5 240.039062 96.289062 C 240.261719 95.769531 240.664062 95.488281 241.226562 95.730469 C 241.667969 95.921875 241.671875 96.382812 241.609375 96.773438 C 241.128906 99.65625 241.109375 102.582031 240.640625 105.476562 C 240.066406 109.035156 238.765625 112.011719 235.691406 114.078125 C 234.503906 114.878906 233.695312 115.945312 233.777344 117.4375 C 234.058594 117.546875 234.1875 117.636719 234.222656 117.609375 C 237.5625 114.976562 240.863281 112.3125 242.738281 108.332031 C 242.90625 107.972656 243.09375 107.375 243.335938 107.339844 C 245.171875 107.074219 244.957031 105.585938 245.25 104.371094 C 245.386719 103.789062 245.582031 103.207031 245.855469 102.679688 C 245.945312 102.507812 246.363281 102.445312 246.632812 102.441406 C 246.761719 102.441406 247.039062 102.726562 247.011719 102.8125 C 246.433594 104.777344 247.703125 105.789062 249.121094 106.511719 C 248.488281 108.253906 246.273438 108.179688 246.078125 109.972656 C 245.867188 111.890625 244.363281 112.753906 242.867188 113.128906 C 241.382812 113.503906 240.402344 114.289062 239.378906 115.28125 C 237.601562 117.003906 236.023438 118.882812 233.605469 119.96875 C 231.898438 120.734375 230.429688 122.242188 228.761719 124.285156 C 230.835938 123.4375 232.222656 122.5625 233.890625 122.542969 C 237.425781 122.507812 240.914062 122.917969 244.386719 123.546875 C 245.070312 123.671875 245.917969 123.761719 245.957031 124.652344 C 246 125.515625 245.175781 125.761719 244.523438 125.972656 C 241.359375 126.996094 238.488281 128.746094 235.261719 129.59375 C 234.894531 129.6875 234.332031 129.582031 234.316406 130.121094 C 234.261719 132.148438 232.824219 132.660156 231.246094 133.191406 C 230.621094 133.402344 230.246094 134.125 229.917969 134.777344 C 228.972656 136.664062 227.949219 138.515625 226.988281 140.394531 C 226.683594 140.992188 226.214844 141.574219 226.488281 142.34375 C 227.191406 142.261719 227.378906 141.574219 227.832031 141.203125 C 229.722656 139.660156 231.921875 139.117188 234.304688 139.171875 C 234.917969 139.183594 235.542969 139.371094 235.738281 140.058594 C 235.917969 140.683594 235.667969 141.242188 235.195312 141.675781 C 234.898438 141.945312 234.570312 142.183594 234.242188 142.414062 C 231.9375 144.019531 229.808594 145.847656 227.167969 146.980469 C 225.210938 147.820312 223.472656 149.273438 222.90625 151.394531 C 222.378906 153.355469 221.589844 155.183594 220.898438 157.066406 C 220.464844 158.242188 219.828125 159.398438 220.023438 161.035156 C 220.746094 160.378906 221.371094 159.992188 221.753906 159.4375 C 223.914062 156.308594 227.070312 154.746094 230.570312 153.699219 C 231.363281 153.460938 231.929688 152.832031 232.628906 152.472656 C 234.285156 151.617188 234.992188 149.710938 236.574219 148.90625 C 239.449219 147.449219 240.886719 144.785156 242.582031 142.308594 C 242.875 141.882812 242.957031 141.390625 242.804688 140.871094 C 242.589844 140.15625 241.808594 139.425781 242.726562 138.710938 C 243.429688 138.160156 244.160156 137.574219 244.976562 137.238281 C 246.207031 136.734375 247.078125 137.453125 247.042969 138.816406 C 247.007812 140.113281 246.914062 141.371094 245.382812 141.902344 C 244.253906 142.296875 243.679688 143.332031 243.160156 144.28125 C 242.226562 145.984375 240.753906 147.261719 239.722656 148.851562 C 238.671875 150.46875 237.550781 151.796875 235.589844 152.25 C 235.242188 152.332031 234.976562 152.753906 234.65625 152.992188 C 233.128906 154.128906 231.683594 155.375 229.648438 155.605469 C 228.808594 155.699219 228 156.164062 227.515625 157.046875 C 232.3125 156.3125 232.332031 156.304688 236.824219 158.292969 C 237.609375 158.640625 238.761719 158.765625 238.609375 159.984375 C 238.476562 161.046875 237.441406 160.898438 236.683594 161.046875 C 235.304688 161.316406 233.894531 161.472656 232.539062 161.839844 C 230.570312 162.371094 228.789062 162.050781 226.996094 161.152344 C 224.074219 159.679688 223.460938 159.835938 221.3125 162.257812 C 220.847656 162.785156 220.414062 163.347656 220 163.914062 C 216.511719 168.695312 212.984375 173.429688 208.257812 177.113281 C 207.414062 177.773438 206.691406 178.578125 206.011719 179.816406 C 207.847656 179.035156 209.671875 179.277344 211.058594 178.035156 C 211.601562 177.546875 212.414062 177.441406 212.976562 178.027344 C 213.570312 178.644531 213.199219 179.390625 212.851562 179.984375 C 210.625 183.835938 207.734375 187.242188 203.230469 187.992188 C 200.046875 188.519531 198.410156 190.628906 196.386719 192.472656 C 195.890625 192.929688 195.222656 193.652344 195.746094 194.644531 C 196.320312 194.488281 196.921875 194.382812 197.476562 194.160156 C 202.132812 192.277344 206.765625 190.351562 211.433594 188.496094 C 213.28125 187.761719 213.871094 185.898438 215.136719 184.652344 C 215.855469 183.941406 215.371094 183.160156 215.277344 182.386719 C 215.105469 181.003906 215.757812 179.796875 216.390625 178.683594 C 217.835938 176.152344 219.441406 173.710938 221.589844 171.683594 C 221.953125 171.339844 222.324219 170.992188 222.722656 170.695312 C 223.070312 170.441406 223.488281 170.421875 223.855469 170.65625 C 224.230469 170.898438 224.308594 171.289062 224.210938 171.707031 C 224.003906 172.585938 223.691406 173.453125 223.582031 174.34375 C 223.132812 178.015625 221.613281 181.054688 218.550781 183.246094 C 217.710938 183.84375 217.074219 184.621094 216.527344 185.785156 C 218.945312 185.238281 220.613281 183.820312 222.617188 183.160156 C 223.402344 182.898438 223.894531 182.234375 224.296875 181.503906 C 224.5 181.132812 224.945312 181.125 225.339844 181.019531 C 227.316406 180.496094 229.058594 178.597656 229.226562 176.742188 C 229.328125 175.589844 228.980469 174.195312 230.4375 173.738281 C 232.023438 173.242188 232.285156 174.9375 233.109375 175.6875 C 233.214844 175.78125 233.15625 176.0625 233.199219 176.550781 C 231.738281 176.71875 230.894531 177.734375 230.214844 179.054688 C 229.484375 180.464844 227.679688 181.253906 227.351562 182.832031 C 226.804688 185.472656 224.6875 183.753906 223.410156 184.464844 C 218.523438 187.1875 213.4375 189.546875 207.839844 191.574219 C 209.230469 192.660156 210.328125 192.863281 211.691406 192.351562 C 213.191406 191.785156 214.761719 191.402344 216.3125 190.976562 C 218.15625 190.464844 220.015625 190.726562 221.578125 191.660156 C 223.566406 192.847656 225.484375 194.109375 227.734375 194.769531 C 228.230469 194.917969 228.640625 195.253906 228.535156 195.863281 C 228.4375 196.421875 227.996094 196.6875 227.5 196.84375 C 226.039062 197.308594 224.523438 197.269531 223.015625 197.320312 C 221.351562 197.378906 219.664062 197.164062 217.84375 197.648438 C 219.355469 199.273438 220.441406 200.890625 221.441406 202.640625 C 222.800781 205.015625 222.84375 207.601562 223.421875 210.109375 C 222.925781 210.460938 222.433594 210.808594 221.941406 211.160156 C 220.613281 209.605469 218.882812 208.609375 217.15625 207.566406 C 213.386719 205.289062 210.035156 202.632812 209.421875 197.816406 C 209.335938 197.125 209.136719 196.445312 208.933594 195.773438 C 208.253906 193.550781 206.359375 192.429688 204.269531 193.359375 C 199.519531 195.46875 194.4375 197.070312 190.929688 201.289062 C 190.582031 201.699219 189.875 201.960938 190.414062 202.691406 C 194.445312 200.773438 200.871094 200.386719 204.863281 201.808594 C 205.34375 201.980469 205.878906 202.136719 205.988281 202.6875 C 206.125 203.371094 205.691406 203.859375 205.128906 204.132812 C 203.863281 204.746094 202.46875 205.144531 201.292969 205.890625 C 197.035156 208.597656 192.664062 208.945312 188.09375 206.824219 C 186.605469 206.132812 185.175781 206.113281 183.8125 207.101562 C 182.980469 207.703125 182.007812 207.945312 181.070312 208.308594 C 178.710938 209.226562 176.601562 210.472656 174.902344 212.488281 C 173.15625 214.550781 171.097656 216.351562 169.152344 218.242188 C 168.5 218.875 167.800781 219.449219 167.363281 220.75 C 170.914062 219.976562 174.191406 221.640625 177.625 221.019531 C 178.234375 220.90625 178.882812 221.007812 179.074219 221.75 C 179.230469 222.351562 178.734375 222.65625 178.320312 222.914062 C 175.828125 224.460938 173.949219 226.777344 171.445312 228.324219 C 169.15625 229.738281 166.835938 230.820312 164.054688 230.21875 C 160.210938 229.386719 157.675781 231.019531 156.027344 234.597656 C 156.691406 235.117188 158.128906 235.222656 157.757812 236.519531 C 157.429688 237.660156 156.257812 237.265625 155.421875 237.445312 C 151.660156 238.246094 147.996094 239.40625 144.882812 241.679688 C 141.632812 244.054688 138.382812 246.417969 134.988281 248.585938 C 132.699219 250.046875 130.0625 251.378906 128.65625 253.605469 C 127.433594 255.539062 125.878906 256.09375 124.082031 256.945312 C 118.453125 259.609375 112.730469 262.117188 107.554688 265.65625 C 106.730469 266.214844 105.808594 266.691406 104.867188 266.996094 C 100.035156 268.5625 95.75 271.179688 91.632812 274.035156 C 88.378906 276.296875 84.910156 277.589844 80.992188 277.796875 C 79.363281 277.886719 77.8125 278.277344 76.335938 278.96875 C 73.546875 280.285156 71.003906 282.195312 67.726562 282.332031 C 66.984375 282.363281 66.226562 282.902344 65.539062 283.3125 C 61.109375 285.96875 56.171875 287.4375 51.441406 289.382812 C 49.476562 290.1875 47.460938 290.769531 45.351562 291.085938 C 43.96875 291.296875 42.25 291.3125 41.34375 292.136719 C 40.183594 293.195312 39.0625 293.28125 37.816406 293.164062 C 34.527344 292.847656 31.222656 293.96875 27.929688 293.015625 C 27.394531 292.859375 26.722656 293.03125 26.152344 293.191406 C 25.25 293.441406 24.355469 293.53125 23.472656 293.253906 C 22.117188 292.828125 20.832031 293.132812 19.667969 293.738281 C 17.148438 295.050781 14.40625 295.742188 11.757812 296.683594 C 8.441406 297.867188 4.988281 296.878906 1.597656 296.945312 C 1.503906 296.945312 1.402344 296.898438 1.3125 296.855469 C 0.925781 296.679688 0.589844 296.453125 0.601562 295.980469 Z M 170.042969 161.296875 C 170.9375 162.917969 172.394531 163.554688 173.382812 164.667969 C 173.917969 165.269531 174.648438 166.128906 175.28125 164.328125 C 175.75 162.996094 177.226562 164.566406 178.242188 164.25 C 176.753906 161.421875 175.070312 160.785156 170.042969 161.296875 Z M 184.148438 161.457031 C 184.371094 159.808594 183.820312 158.875 183.421875 157.878906 C 182.734375 156.167969 181.414062 154.828125 181.300781 152.714844 C 181.234375 151.480469 179.507812 150.464844 177.367188 150 C 178.9375 154.410156 180.3125 158.402344 184.148438 161.457031 Z M 192.410156 131.453125 C 193.933594 128.921875 193.359375 126.390625 192.65625 123.242188 C 191.214844 125.429688 191.007812 127.441406 190.554688 129.363281 C 190.199219 130.851562 191.777344 130.636719 192.410156 131.453125 Z M 182.605469 135.320312 C 183.113281 138.320312 183.113281 138.320312 185.621094 140.351562 C 185.839844 136.878906 185.695312 136.652344 182.605469 135.320312 Z M 197.6875 140.78125 C 197.910156 140.914062 198.238281 141.039062 198.371094 140.644531 C 198.429688 140.476562 198.445312 140.238281 198.367188 140.089844 C 198.179688 139.734375 197.925781 139.894531 197.703125 140.085938 C 197.554688 140.316406 197.351562 140.578125 197.6875 140.78125 Z M 196.25 142.203125 C 195.464844 142.910156 195.289062 143.597656 195.304688 144.785156 C 196.140625 143.957031 196.421875 143.316406 196.25 142.203125 Z M 190.5625 100.875 C 191.269531 102.664062 192.773438 103.195312 194.027344 104.003906 C 193.425781 102.480469 193.023438 100.746094 190.5625 100.875 Z M 198.933594 89.355469 C 198.480469 88.246094 198.363281 87.230469 197.636719 86.339844 C 196.933594 88.644531 196.933594 88.644531 198.933594 89.355469 Z M 186.121094 84.238281 C 187.117188 86.355469 188.40625 87.515625 190.890625 88.039062 C 189.835938 85.675781 188.25 84.90625 186.121094 84.238281 Z M 196.53125 95.761719 C 196.644531 95.011719 196.128906 94.574219 195.796875 94.046875 C 195.296875 94.949219 196.230469 95.214844 196.53125 95.761719 Z M 208.601562 47.644531 C 209.265625 49.332031 210.058594 50.21875 211.035156 51.457031 C 211.257812 50.136719 211.742188 49.203125 213.273438 49.820312 C 212.007812 48.441406 210.515625 48.175781 208.601562 47.644531 Z M 222.566406 18.375 C 223.527344 15.890625 223.5 13.628906 222.15625 10.90625 C 221.574219 12.585938 221.105469 13.820312 220.71875 15.082031 C 220.164062 16.890625 223.003906 16.558594 222.566406 18.375 Z M 218.601562 20.703125 C 218.144531 21.457031 218.835938 22 218.921875 22.984375 C 219.417969 21.871094 219.101562 21.261719 218.601562 20.703125 Z M 213.121094 30.375 C 212.539062 28.996094 212.539062 28.996094 210.847656 27.992188 C 211.382812 29.394531 212.136719 29.992188 213.121094 30.375 Z M 210.015625 24.429688 C 209.691406 24.230469 209.292969 24.15625 208.414062 23.847656 C 208.84375 24.738281 208.972656 25.121094 209.195312 25.4375 C 209.488281 25.839844 209.878906 26.285156 210.40625 25.796875 C 211.109375 25.148438 210.53125 24.742188 210.015625 24.429688 Z M 223.230469 41.472656 C 223.480469 40.933594 223.664062 40.28125 224.082031 39.917969 C 226.714844 37.644531 226.730469 37.667969 226.558594 33.726562 C 223.46875 36.675781 221.328125 39.820312 221.578125 44.59375 C 222.757812 43.429688 222.820312 42.371094 223.230469 41.472656 Z M 219.796875 44.992188 C 219.550781 46.097656 219.761719 46.773438 220.230469 47.972656 C 220.453125 46.769531 220.320312 46.050781 219.796875 44.992188 Z M 239.804688 47.390625 C 235.894531 50.328125 234.921875 54.375 234.769531 59.246094 C 237.871094 57.515625 240.015625 52.261719 239.804688 47.390625 Z M 231.695312 55.410156 C 231.640625 53.417969 231.585938 51.398438 230.894531 49.5 C 230.652344 48.828125 230.824219 47.703125 229.71875 47.652344 C 228.890625 47.613281 229.164062 48.894531 228.96875 49.570312 C 228.109375 52.519531 227.460938 56.328125 228.34375 57.816406 C 228.671875 58.375 228.617188 59.386719 229.566406 59.171875 C 230.273438 59.011719 231.160156 58.773438 231.316406 57.773438 C 231.4375 56.984375 231.71875 56.195312 231.695312 55.410156 Z M 232.976562 59.34375 C 231.328125 61.234375 230.160156 62.601562 230.066406 64.570312 C 231.523438 63.355469 233.015625 62.175781 232.976562 59.34375 Z M 234.5625 109.925781 C 234.839844 109.28125 235.074219 108.613281 235.367188 107.976562 C 235.527344 107.632812 235.695312 107.179688 236.21875 107.324219 C 236.867188 107.503906 236.847656 108.042969 236.722656 108.539062 C 236.503906 109.394531 236.222656 110.234375 236.171875 111.144531 C 239.398438 108.667969 238.875 104.957031 239.285156 101.511719 C 235.859375 104.308594 232.878906 107.339844 232.933594 112.46875 C 234.195312 111.8125 234.210938 110.753906 234.5625 109.925781 Z M 230.007812 143.664062 C 230.734375 143.058594 231.375 142.34375 232.136719 141.589844 C 230.71875 141.148438 229.816406 141.632812 229.003906 142.417969 C 228.714844 142.699219 228.449219 143.023438 228.734375 143.417969 C 229.058594 143.867188 229.589844 144.015625 230.007812 143.664062 Z M 235.199219 159.769531 C 233.234375 158.28125 231.667969 157.773438 229.980469 158.292969 C 229.09375 158.5625 229.25 159.542969 229.316406 160.339844 C 231.164062 160.9375 232.796875 159.980469 235.199219 159.769531 Z M 221.546875 174.164062 C 219.671875 176.105469 218.40625 178.078125 217.699219 180.472656 C 218.957031 178.511719 222.472656 178.039062 221.546875 174.164062 Z M 224.003906 195.683594 C 222.570312 193.804688 220.925781 193.050781 219.015625 192.445312 C 216.4375 191.628906 216.363281 194.683594 214.519531 194.925781 C 217.535156 196.316406 220.613281 195.585938 224.003906 195.683594 Z M 211.890625 199.542969 C 212.089844 202.1875 215.425781 205.195312 221.03125 207.789062 C 221.222656 203.097656 217.824219 198.667969 213.578125 198.078125 C 213.566406 198.257812 213.507812 198.449219 213.550781 198.617188 C 213.75 199.375 215.402344 199.847656 214.34375 200.730469 C 213.53125 201.40625 212.816406 200.230469 212.15625 199.679688 C 212.082031 199.617188 211.980469 199.589844 211.890625 199.542969 Z M 202.300781 203.542969 C 198.761719 202.136719 195.695312 202.445312 192.535156 203.523438 C 192.71875 203.855469 192.78125 204.125 192.882812 204.140625 C 193.824219 204.273438 195.351562 203.644531 195.558594 204.734375 C 195.863281 206.339844 193.730469 205.15625 193.128906 206.296875 C 196.695312 207.347656 199.136719 205.015625 202.300781 203.542969 Z M 174.808594 188.15625 C 174.285156 186.3125 173.46875 184.484375 171.867188 183.109375 C 170.800781 187.1875 170.980469 191.027344 173.105469 194.890625 C 173.679688 194.09375 173.296875 193.449219 173.304688 192.855469 C 173.304688 192.441406 173.316406 191.867188 173.664062 191.808594 C 176.457031 191.34375 175.148438 189.351562 174.808594 188.15625 Z M 195.78125 168.34375 C 195.058594 170.105469 193.863281 171.617188 193.328125 173.480469 C 193.164062 174.0625 192.40625 174.476562 191.921875 174.964844 C 194.109375 173.988281 194.085938 174.007812 195.144531 176.011719 C 195.503906 176.691406 195.664062 177.523438 196.652344 178.089844 C 197.101562 174.957031 197.246094 171.878906 198.316406 168.953125 C 199.339844 166.164062 200.933594 163.566406 201.507812 160.195312 C 198.753906 162.640625 197.011719 165.34375 195.78125 168.34375 Z M 204.65625 145.835938 C 204.65625 146.3125 205.105469 146.753906 205.652344 146.816406 C 206.117188 146.871094 206.289062 146.453125 206.472656 146.097656 C 208.597656 142.039062 211.429688 138.398438 212.871094 133.917969 C 213.652344 131.496094 215.265625 129.339844 215.285156 126.492188 C 213.820312 126.257812 213.382812 127.390625 212.640625 127.972656 C 209.359375 130.53125 206.839844 133.621094 205.210938 137.546875 C 204.054688 140.339844 204.632812 143.066406 204.65625 145.835938 Z M 205.019531 76.957031 C 204.445312 79.71875 204.703125 80.933594 206.449219 83.351562 C 205.390625 81.378906 207.527344 78.722656 205.019531 76.957031 Z M 214.351562 79.953125 C 214.101562 80.09375 213.855469 80.34375 213.738281 80.601562 C 212.128906 84.097656 209.527344 87.183594 209.226562 91.761719 C 211.851562 90.394531 213.484375 88.550781 215.03125 86.613281 C 215.902344 85.515625 216.710938 84.367188 217.613281 83.296875 C 219.671875 80.859375 220.003906 78.214844 218.472656 74.625 C 217.710938 77.324219 216.289062 78.871094 214.351562 79.953125 Z M 213.242188 75.417969 C 213.195312 75.957031 213.054688 76.652344 214.003906 76.703125 C 214.730469 76.742188 215.457031 77.339844 216.039062 76.261719 C 217.273438 73.964844 217.070312 71.523438 217.324219 68.535156 C 214.816406 70.644531 213.46875 72.710938 213.242188 75.417969 Z M 222.214844 68.550781 C 220.308594 71.179688 220.191406 71.800781 220.878906 74.597656 C 223.539062 73.035156 222.429688 70.679688 222.214844 68.550781 Z M 233.097656 78.839844 C 230.378906 78.945312 227.800781 79.253906 225.734375 81.277344 C 224.773438 82.21875 224.859375 83.1875 225.269531 84.625 C 229.078125 84.144531 230.738281 81.050781 233.097656 78.839844 Z M 222.4375 79.757812 C 220.644531 81.40625 219.679688 83.359375 217.875 85.46875 C 221.21875 84.808594 222.207031 83.441406 222.4375 79.757812 Z M 221.75 117.679688 C 219.675781 117.644531 219.675781 117.644531 219.414062 120.761719 C 220.5 119.839844 221.28125 118.898438 221.75 117.679688 Z M 216.453125 117.902344 C 217.269531 117.390625 217.707031 116.648438 217.992188 115.753906 C 219.136719 112.214844 220.507812 108.738281 220.933594 104.996094 C 221.0625 103.894531 221.214844 102.785156 221.503906 101.722656 C 222 99.90625 222.183594 98.246094 220.828125 96.625 C 220.289062 95.980469 220.121094 94.964844 219.945312 94.085938 C 219.816406 93.457031 219.453125 92.667969 220.273438 92.171875 C 221.125 91.660156 221.433594 92.703125 222.359375 92.902344 C 222.4375 90.789062 222.511719 88.730469 222.589844 86.570312 C 220.953125 86.347656 219.644531 86.871094 218.394531 87.4375 C 213.75 89.539062 210.414062 93.019531 207.832031 97.371094 C 206.914062 98.914062 208.832031 99.0625 208.742188 100.253906 C 206.6875 101.117188 205.988281 102.921875 205.394531 105.074219 C 204.625 107.863281 203.179688 110.457031 202.183594 113.191406 C 201.554688 114.910156 200.644531 116.738281 202.324219 118.460938 C 202.507812 118.644531 202.652344 119.101562 202.550781 119.296875 C 201.367188 121.617188 202.820312 123.808594 202.820312 126.0625 C 202.824219 127.371094 202.839844 128.6875 202.6875 129.980469 C 202.441406 132.058594 202.941406 133.9375 203.792969 135.851562 C 206.878906 132.097656 208.609375 126.960938 208.332031 122.671875 C 208.25 121.441406 208.027344 120.382812 207.066406 119.421875 C 205.382812 117.730469 204.949219 115.539062 205.464844 113.261719 C 205.800781 111.796875 206.40625 110.394531 206.945312 108.984375 C 207.15625 108.433594 207.457031 107.789062 208.183594 107.855469 C 208.851562 107.917969 209.152344 108.511719 209.367188 109.09375 C 209.851562 110.414062 210.300781 111.746094 210.808594 113.054688 C 211.085938 113.773438 210.949219 114.6875 211.863281 115.222656 C 212.546875 114.171875 212.910156 112.953125 212.765625 111.816406 C 212.292969 108.144531 214.609375 105.570312 216.121094 102.675781 C 216.390625 102.152344 216.914062 101.648438 217.597656 101.921875 C 218.085938 102.117188 218.171875 102.683594 218.253906 103.199219 C 218.910156 107.289062 218.363281 111.003906 215.105469 113.96875 C 214.457031 114.558594 213.738281 115.136719 213.503906 116.109375 C 212.621094 119.808594 211.453125 123.429688 209.976562 127.296875 C 211.765625 126.964844 211.734375 126.015625 211.945312 125.128906 C 212.640625 122.230469 213.773438 119.570312 216.453125 117.902344 Z M 210.097656 120.980469 C 210.816406 119.800781 211.296875 118.554688 211.125 117.136719 C 210.328125 118.273438 210.003906 119.566406 210.097656 120.980469 Z M 208.074219 110.984375 C 207.183594 112.535156 206.703125 113.675781 206.992188 115.023438 C 207.902344 115.382812 208.503906 114.453125 209.429688 114.976562 C 209.28125 113.480469 209.074219 112.351562 208.074219 110.984375 Z M 214.972656 111.390625 C 216.484375 109.617188 217.210938 107.929688 216.414062 105.785156 C 215.71875 107.492188 213.644531 108.847656 214.972656 111.390625 Z M 216.359375 120.46875 C 215.097656 120.800781 214.785156 121.875 214.4375 122.898438 C 214.292969 123.324219 214.484375 123.652344 214.925781 123.8125 C 215.398438 123.980469 215.738281 123.726562 215.898438 123.371094 C 216.308594 122.464844 216.59375 121.519531 216.359375 120.46875 Z M 224.875 127.886719 C 224.71875 128.453125 224.691406 129.019531 225.226562 129.464844 C 225.5625 128.914062 225.707031 128.359375 225.355469 127.792969 C 225.320312 127.738281 224.894531 127.8125 224.875 127.886719 Z M 242.035156 125 C 239.742188 124.320312 237.917969 124.15625 235.835938 124.242188 C 236.945312 125.863281 236.105469 126.335938 234.742188 126.253906 C 232.96875 126.148438 231.210938 125.964844 229.179688 126.914062 C 233.976562 129.027344 237.765625 127.253906 242.035156 125 Z M 230.3125 130.585938 C 230.433594 130.050781 230.886719 129.375 230.027344 129.09375 C 229.378906 128.886719 229.167969 129.484375 229.054688 129.960938 C 228.765625 131.160156 228.136719 132.171875 227.4375 133.15625 C 226.988281 133.785156 227.078125 134.378906 227.527344 135.066406 C 228.199219 133.371094 229.902344 132.394531 230.3125 130.585938 Z M 217.648438 147.054688 C 217.105469 148.019531 217.339844 148.964844 217.574219 149.902344 C 217.679688 150.324219 217.949219 150.59375 218.410156 150.457031 C 218.835938 150.332031 219.03125 149.96875 218.953125 149.550781 C 218.773438 148.617188 218.679688 147.621094 217.648438 147.054688 Z M 220.78125 151.203125 C 219.953125 151.96875 219.917969 153.003906 219.6875 154.242188 C 220.917969 152.957031 220.9375 152.933594 220.78125 151.203125 Z M 216.269531 161.566406 C 217.046875 161.105469 216.632812 160.402344 216.8125 159.316406 C 215.8125 160.195312 215.246094 160.617188 215.53125 161.386719 C 215.625 161.648438 215.988281 161.730469 216.269531 161.566406 Z M 213.910156 159.3125 C 214.550781 159.644531 215.144531 158.722656 215.496094 158.167969 C 216.199219 157.054688 217.902344 156.9375 218.167969 155.480469 C 218.4375 154 217.125 153.203125 216.566406 152.074219 C 215.296875 149.507812 215.757812 146.753906 215.925781 144.054688 C 215.964844 143.414062 216.449219 142.972656 217.105469 142.851562 C 217.820312 142.71875 218.226562 143.195312 218.535156 143.726562 C 219.84375 146.011719 220.558594 148.484375 220.851562 151.089844 C 221.570312 150.777344 221.628906 150.046875 221.855469 149.421875 C 222.886719 146.585938 224.101562 143.804688 224.902344 140.90625 C 225.582031 138.445312 226.097656 135.855469 223.820312 133.679688 C 222.597656 132.511719 223.074219 130.601562 222.1875 128.957031 C 220.421875 129.667969 218.757812 130.261719 218.574219 132.617188 C 218.523438 133.253906 218.042969 133.925781 217.609375 134.460938 C 212.683594 140.554688 208.640625 147.21875 204.910156 154.089844 C 204.285156 155.246094 203.476562 156.324219 204.769531 157.601562 C 205.398438 158.222656 204.890625 158.902344 204.5 159.496094 C 204.066406 160.167969 203.285156 160.53125 203 161.351562 C 202.148438 163.8125 201.242188 166.253906 200.34375 168.742188 C 201.375 168.90625 201.300781 168.050781 201.46875 167.636719 C 203.027344 163.835938 205.886719 161.4375 209.691406 160.238281 C 211.019531 159.820312 212.164062 158.402344 213.910156 159.3125 Z M 208.789062 167.921875 C 211.164062 166.449219 213.285156 164.820312 213.015625 161.238281 C 211.46875 163.683594 210.128906 165.804688 208.789062 167.921875 Z M 215.753906 164.871094 C 211.984375 166.871094 210.140625 169.328125 209.804688 172.792969 C 213.003906 171.273438 214.308594 169.539062 215.753906 164.871094 Z M 207.207031 166.5625 C 207.433594 166.75 208.070312 165.875 208.425781 165.382812 C 209.171875 164.34375 210.125 163.414062 210.1875 161.820312 C 206.964844 162.621094 204.875 164.546875 203.179688 167.703125 C 204.902344 167.363281 205.492188 165.125 207.207031 166.5625 Z M 207.742188 172.507812 C 208.089844 171.566406 207.898438 170.675781 207.382812 169.945312 C 206.738281 169.027344 205.910156 169.828125 205.214844 170.015625 C 201.785156 170.941406 199.140625 174.222656 199.007812 177.777344 C 198.953125 179.230469 198.3125 180.648438 198.617188 182.355469 C 203.011719 180.089844 206.085938 176.964844 207.742188 172.507812 Z M 209.910156 180.941406 C 205.980469 180.746094 203.28125 182.570312 201.730469 186.816406 C 205.378906 185.636719 208.53125 184.535156 209.910156 180.941406 Z M 200.898438 183.476562 C 198.496094 184.792969 196.71875 186.5625 196.261719 189.898438 C 198.851562 188.097656 200.113281 185.960938 200.898438 183.476562 Z M 193.941406 177.84375 C 194.101562 180.40625 194.101562 180.40625 195.816406 182.621094 C 196.460938 180.433594 195.109375 179.359375 193.941406 177.84375 Z M 189.917969 199.558594 C 192.800781 196.667969 194.359375 193.261719 194.566406 188.5 C 189.003906 194.179688 185.371094 200.710938 180.324219 206.21875 C 182.417969 206 186.378906 203.113281 189.917969 199.558594 Z M 170.4375 211.730469 C 170.828125 212.097656 171.464844 212.253906 171.816406 211.945312 C 173.59375 210.375 175.644531 208.953125 176.089844 206.386719 C 176.386719 204.6875 176.984375 203.089844 177.585938 201.5 C 177.941406 200.558594 179.003906 199.972656 179.617188 201.070312 C 180.382812 202.433594 180.820312 201.988281 181.453125 201.152344 C 183.511719 198.433594 185.605469 195.734375 187.601562 192.96875 C 189.308594 190.601562 191.097656 188.3125 193.332031 186.414062 C 194.089844 185.769531 194.707031 185.058594 193.894531 184.148438 C 191.707031 181.691406 191.738281 178.871094 192.398438 175.925781 C 192.507812 175.429688 192.269531 175.191406 191.914062 174.972656 C 189.515625 179.03125 187.820312 183.421875 185.867188 187.691406 C 184.179688 191.386719 181.097656 194.121094 178.714844 197.34375 C 175.597656 201.5625 173.367188 206.308594 170.460938 210.644531 C 170.230469 210.988281 170.089844 211.402344 170.4375 211.730469 Z M 174.769531 223.117188 C 171.515625 222.890625 168.3125 222.15625 165.167969 223.488281 C 164.589844 223.730469 164.117188 224.078125 163.882812 224.671875 C 163.78125 224.914062 163.636719 225.25 163.726562 225.441406 C 164.476562 227.019531 164.507812 227.355469 163.503906 228.453125 C 168.894531 229.628906 171.625 226.050781 174.769531 223.117188 Z M 158.65625 227.054688 C 160.792969 223.773438 163.828125 221.226562 166 217.960938 C 166.628906 217.015625 167.636719 216.324219 168.636719 215.351562 C 164.136719 216.171875 157.917969 222.585938 156.117188 228.125 C 157.398438 228.289062 158.105469 227.894531 158.65625 227.054688 Z M 156.3125 230.605469 C 153.40625 231.296875 152.035156 233.15625 150.84375 235.371094 C 153.234375 235.59375 153.910156 235.003906 156.3125 230.605469 Z M 95.980469 268.28125 C 98.222656 266.683594 100.777344 265.867188 103.285156 264.847656 C 106.246094 263.640625 108.992188 261.914062 111.820312 260.402344 C 113.414062 259.550781 114.929688 258.519531 116.585938 257.835938 C 119.734375 256.539062 122.441406 254.894531 123.929688 251.601562 C 124.480469 250.386719 125.449219 249 127.191406 250.484375 C 127.496094 250.746094 127.988281 250.625 128.308594 250.351562 C 131.34375 247.742188 135.089844 246.113281 138.191406 243.332031 C 137.1875 242.835938 136.480469 243.289062 135.785156 243.5 C 132.515625 244.492188 129.289062 245.632812 125.996094 246.511719 C 121.65625 247.671875 118.527344 250.75 114.996094 253.175781 C 110.949219 255.960938 107.089844 259 102.890625 261.585938 C 99.5 263.675781 96.882812 266.847656 93.414062 268.886719 C 94.515625 269.835938 95.289062 268.769531 95.980469 268.28125 Z M 93.332031 268.925781 C 92.730469 269.023438 92.28125 269.402344 91.730469 269.851562 C 92.453125 269.703125 92.964844 269.433594 93.332031 268.925781 Z M 62.28125 282.050781 C 54.800781 283.746094 47.863281 287.117188 40.488281 289.136719 C 48.4375 288.835938 55.230469 285.066406 62.28125 282.050781 Z M 16.1875 292.660156 C 12.691406 292.015625 10.324219 292.417969 6.296875 294.179688 C 9.625 295.34375 9.554688 294.960938 16.1875 292.660156 Z M 16.1875 292.660156 "/></g></g></g></g></svg>