<svg xmlns="http://www.w3.org/2000/svg" xmlns:xlink="http://www.w3.org/1999/xlink" width="340" zoomAndPan="magnify" viewBox="0 0 255 297.749993" height="397" preserveAspectRatio="xMidYMid meet" version="1.2"><defs><clipPath id="be32b2013b"><path d="M 5 0 L 254.890625 0 L 254.890625 297.5 L 5 297.5 Z M 5 0 "/></clipPath><clipPath id="cccb637d32"><path d="M 39.035156 -2.839844 L 324.058594 198.644531 L 220.722656 344.824219 L -64.300781 143.339844 Z M 39.035156 -2.839844 "/></clipPath><clipPath id="0857b911be"><path d="M 39.035156 -2.839844 L 324.058594 198.644531 L 220.722656 344.824219 L -64.300781 143.339844 Z M 39.035156 -2.839844 "/></clipPath></defs><g id="10b47da30c"><g clip-rule="nonzero" clip-path="url(#be32b2013b)"><g clip-rule="nonzero" clip-path="url(#cccb637d32)"><g clip-rule="nonzero" clip-path="url(#0857b911be)"><path style=" stroke:none;fill-rule:nonzero;fill:#c5a65a;fill-opacity:1;" d="M 254.15625 296.023438 C 254.144531 295.613281 254.011719 295.089844 253.628906 295.027344 C 252.191406 294.800781 251.105469 294.332031 250.875 292.660156 C 250.832031 292.359375 250.085938 292.082031 249.617188 291.921875 C 247.238281 291.109375 244.871094 290.105469 242.332031 290.054688 C 238.117188 289.96875 233.875 289.859375 229.679688 290.199219 C 226.675781 290.441406 224.019531 290.480469 221.007812 289.34375 C 215.480469 287.257812 209.632812 285.992188 204.125 283.765625 C 200.703125 282.382812 196.839844 282.144531 193.8125 279.691406 C 193.195312 279.191406 192.066406 278.726562 191.332031 279.507812 C 189.753906 281.183594 188.1875 280.355469 186.671875 279.617188 C 184.410156 278.519531 182.199219 277.308594 180 276.085938 C 176.777344 274.289062 173.113281 273.121094 170.960938 269.769531 C 170.632812 269.253906 169.847656 268.84375 169.390625 269.285156 C 168.242188 270.402344 167.332031 269.503906 166.429688 269.078125 C 163.609375 267.734375 160.738281 266.351562 158.496094 264.183594 C 154.179688 260.007812 148.652344 257.554688 144.121094 253.738281 C 141.367188 251.414062 137.4375 250.25 136.417969 246.121094 C 136.292969 245.605469 135.660156 245.203125 135.242188 244.769531 C 133.375 242.820312 133.097656 242.863281 131.75 245.3125 C 129.4375 244.621094 127.117188 243.972656 124.824219 243.226562 C 120.898438 241.957031 117.015625 240.570312 112.890625 240.039062 C 111.265625 239.832031 109.855469 239.101562 108.722656 237.8125 C 107.59375 236.53125 106.515625 235.234375 105.507812 233.839844 C 102.910156 230.253906 100.46875 226.589844 98.363281 222.6875 C 97.707031 221.472656 96.714844 220.390625 95.714844 219.417969 C 94.132812 217.878906 92.394531 216.496094 90.746094 215.023438 C 86.460938 211.179688 83.890625 206.128906 81.09375 201.246094 C 80.429688 200.082031 80.628906 199.066406 81.730469 198.046875 C 86.199219 193.90625 87.195312 186.1875 84.0625 180.894531 C 83.214844 179.460938 82.546875 179.378906 81.742188 180.796875 C 79.257812 185.167969 76.425781 189.460938 77.671875 194.921875 C 77.703125 195.058594 77.515625 195.246094 77.398438 195.464844 C 74.304688 192.488281 72.03125 189.167969 71.066406 184.828125 C 70.097656 180.480469 69.992188 176.0625 69.300781 171.703125 C 69.179688 170.921875 69.535156 170.433594 70.128906 169.917969 C 71.464844 168.765625 72.734375 167.996094 74.710938 168.222656 C 77.21875 168.515625 79.847656 168.140625 81.898438 166.527344 C 84.011719 164.863281 85.851562 162.84375 87.785156 160.957031 C 87.976562 160.769531 88.136719 160.394531 88.085938 160.148438 C 88.003906 159.726562 87.601562 159.519531 87.175781 159.546875 C 85.46875 159.660156 83.761719 159.902344 82.058594 159.914062 C 78.273438 159.929688 75.417969 161.71875 73.53125 164.773438 C 72.480469 166.476562 71.011719 167.171875 69.445312 168.082031 C 68.730469 165.230469 68.84375 164.867188 70.867188 163.523438 C 72.222656 162.621094 73.335938 161.503906 74.292969 160.171875 C 76.996094 156.421875 78.105469 151.992188 79.730469 147.78125 C 79.800781 147.597656 79.816406 147.386719 79.832031 147.1875 C 79.859375 146.882812 79.8125 146.613281 79.511719 146.429688 C 79.195312 146.238281 78.882812 146.34375 78.675781 146.527344 C 77.625 147.460938 76.648438 148.445312 75.398438 149.15625 C 70.0625 152.199219 67.054688 156.578125 67.617188 162.976562 C 67.757812 164.582031 67.449219 166.160156 67.082031 168.035156 C 65.679688 166.34375 65.351562 164.730469 65.300781 163.140625 C 65.136719 158.214844 64.984375 153.277344 65.109375 148.351562 C 65.160156 146.40625 65.761719 144.296875 67.902344 143.417969 C 72.347656 141.589844 73.320312 137.523438 74.460938 133.542969 C 74.574219 133.140625 74.492188 132.6875 74.167969 132.4375 C 73.707031 132.085938 73.207031 132.292969 72.78125 132.59375 C 71.875 133.234375 71.011719 133.925781 70.085938 134.53125 C 67.753906 136.058594 66.335938 138.09375 66.164062 140.960938 C 66.128906 141.535156 66.21875 142.40625 65.136719 142.722656 C 64.988281 139.996094 64.175781 137.355469 64.992188 134.664062 C 66.539062 129.5625 64.246094 125.214844 62.296875 120.800781 C 62.132812 120.421875 61.828125 120.152344 61.359375 120.1875 C 60.871094 120.226562 60.667969 120.589844 60.570312 120.976562 C 59.308594 126.046875 58.363281 131.09375 62.035156 135.675781 C 62.671875 136.46875 63.261719 137.296875 63.28125 138.367188 C 63.363281 143.265625 63.714844 148.167969 63.347656 153.320312 C 61.789062 152.09375 61.375 150.746094 61.488281 149.003906 C 61.824219 143.789062 58.800781 140.140625 55.488281 136.667969 C 55.152344 136.316406 54.675781 136.027344 54.152344 136.394531 C 53.636719 136.753906 53.808594 137.273438 53.882812 137.761719 C 54.074219 139.058594 54.296875 140.347656 54.4375 141.648438 C 54.785156 144.875 56.15625 147.410156 58.496094 149.796875 C 61.558594 152.914062 63.5 156.835938 63.597656 161.402344 C 63.632812 163.125 63.703125 164.839844 64.386719 166.441406 C 65.886719 169.972656 66.664062 173.742188 67.96875 177.335938 C 68.308594 178.269531 68.765625 179.261719 68.140625 180.570312 C 67.457031 179.34375 67 178.332031 66.371094 177.4375 C 63.011719 172.632812 60.269531 167.527344 58.445312 161.933594 C 58.128906 160.957031 57.867188 159.664062 56.238281 160.097656 C 56.050781 160.148438 55.699219 159.835938 55.523438 159.617188 C 54.140625 157.878906 52.835938 156.039062 52.214844 153.914062 C 51.660156 152.027344 52.054688 150.179688 53.414062 148.585938 C 53.859375 148.058594 54.050781 146.949219 52.976562 147.050781 C 51.609375 147.179688 51.824219 146.488281 51.785156 145.6875 C 51.667969 143.253906 51.96875 140.84375 52.554688 138.515625 C 52.9375 136.996094 53.273438 135.367188 54.328125 134.085938 C 55.144531 133.097656 56.925781 132.164062 54.324219 131.15625 C 54.117188 131.078125 54.128906 130.417969 54.050781 130.023438 C 53.640625 127.90625 54.109375 125.84375 54.308594 123.742188 C 54.628906 120.335938 55.71875 116.980469 54.355469 113.441406 C 53.183594 110.402344 55.550781 107.136719 58.804688 106.691406 C 62.851562 106.140625 64.898438 103.054688 67.085938 100.1875 C 67.679688 99.40625 67.015625 98.855469 66.195312 98.789062 C 65.71875 98.746094 65.214844 98.945312 64.726562 99.058594 C 61.71875 99.75 59.085938 101.140625 56.9375 103.53125 C 56.734375 102.785156 56.78125 102.277344 57.082031 101.851562 C 58.859375 99.359375 59.914062 96.523438 60.828125 93.65625 C 61.433594 91.75 62.410156 90.542969 64.40625 90.019531 C 67.101562 89.316406 68.785156 87.273438 70.269531 85.0625 C 70.625 84.527344 70.816406 83.921875 70.527344 83.351562 C 70.203125 82.714844 69.503906 82.765625 68.914062 82.859375 C 65.644531 83.390625 63.042969 84.878906 61.632812 88.035156 C 60.679688 90.167969 59.792969 92.335938 58.519531 94.308594 C 58.5 94.058594 58.453125 93.800781 58.527344 93.585938 C 59.597656 90.542969 58.785156 87.621094 57.976562 84.703125 C 57.824219 84.144531 57.683594 83.460938 56.941406 83.375 C 56.257812 83.296875 55.890625 83.8125 55.496094 84.292969 C 52.992188 87.335938 52.71875 92.277344 54.976562 95.515625 C 55.394531 96.113281 55.730469 96.648438 55.78125 97.394531 C 56.0625 101.433594 54.921875 104.929688 52.140625 107.941406 C 50.683594 106.894531 50.332031 105.472656 50.128906 104.117188 C 49.777344 101.796875 49.054688 99.613281 48.089844 97.511719 C 46.886719 94.894531 46.792969 92.054688 46.328125 89.300781 C 46.152344 88.261719 45.816406 86.527344 47.296875 86.15625 C 49.773438 85.539062 50.195312 83.628906 50.777344 81.703125 C 51.375 79.710938 51.363281 77.714844 50.691406 75.761719 C 50.476562 75.144531 50.183594 74.34375 49.367188 74.257812 C 48.5 74.171875 48.253906 74.917969 47.9375 75.558594 C 46.675781 78.089844 45.484375 80.632812 45.285156 83.519531 C 45.25 84.046875 45.660156 84.757812 44.609375 85.113281 C 43.015625 83.175781 41.851562 81.125 42.453125 78.382812 C 42.894531 76.359375 42.542969 74.367188 41.695312 72.488281 C 40.808594 70.523438 39.351562 68.984375 37.742188 67.601562 C 36.964844 66.933594 36.398438 65.40625 35.171875 66.058594 C 34.121094 66.617188 35.261719 67.90625 35.019531 68.855469 C 34.980469 69.011719 34.828125 69.140625 34.492188 69.617188 C 33.703125 67.558594 31.914062 66.363281 32.371094 63.824219 C 33.015625 60.269531 34.90625 57.921875 38.140625 56.753906 C 42.820312 55.070312 45.84375 51.804688 47.898438 47.441406 C 48.121094 46.972656 48.34375 46.476562 48 46.042969 C 47.632812 45.585938 47.089844 45.746094 46.605469 45.917969 C 45.472656 46.328125 44.351562 46.792969 43.199219 47.152344 C 41.089844 47.808594 39.570312 48.9375 38.507812 51.035156 C 37.554688 52.902344 36.578125 54.914062 34.898438 56.421875 C 34.148438 55.546875 34.605469 54.855469 34.726562 54.226562 C 35.625 49.484375 36.539062 44.75 36.128906 39.882812 C 36.117188 39.785156 36.097656 39.679688 36.117188 39.582031 C 36.660156 36.664062 36.714844 33.464844 40.769531 32.90625 C 41.949219 32.746094 43.054688 31.902344 43.699219 30.890625 C 45.148438 28.613281 46.875 26.472656 47.609375 23.800781 C 47.765625 23.21875 47.882812 22.621094 47.984375 22.027344 C 48.054688 21.625 48.027344 21.210938 47.660156 20.945312 C 47.175781 20.589844 46.695312 20.753906 46.289062 21.089844 C 42.800781 23.929688 38.882812 26.386719 37.566406 31.128906 C 37.425781 31.644531 37.136719 32.308594 36.273438 31.976562 C 36.492188 25.503906 37.609375 19.195312 39.597656 13.03125 C 39.902344 12.089844 39.964844 11.050781 41.285156 10.832031 C 42.273438 10.671875 42.085938 9.957031 41.898438 9.195312 C 41.226562 6.414062 41.453125 5.796875 44.003906 4.28125 C 44.925781 3.730469 44.707031 2.882812 44.835938 2.183594 C 44.972656 1.480469 44.25 1.246094 43.589844 1.238281 C 42.75 1.226562 42.09375 0.816406 41.382812 0.410156 C 40.269531 -0.214844 39.699219 0.207031 39.71875 1.464844 C 39.730469 2.292969 40.078125 3.015625 40.386719 3.765625 C 40.96875 5.175781 40.308594 6.945312 39.367188 7.160156 C 37.183594 7.664062 37.828125 8.71875 38.210938 9.980469 C 38.351562 10.449219 38.507812 11.03125 38.351562 11.449219 C 37.160156 14.617188 37.035156 18.101562 35.496094 21.164062 C 35.199219 20.851562 35.304688 20.46875 35.335938 20.101562 C 35.667969 16.164062 33.996094 12.625 33.105469 8.933594 C 32.988281 8.4375 32.707031 7.96875 32.144531 7.878906 C 31.53125 7.78125 31.265625 8.265625 31.066406 8.722656 C 28.628906 14.339844 28.15625 19.804688 32.519531 24.777344 C 33.03125 25.359375 33.144531 25.960938 33.390625 26.601562 C 34.945312 30.679688 34.429688 34.929688 34.515625 39.128906 C 34.527344 39.824219 34.832031 40.671875 34.09375 41.34375 C 33.792969 40.667969 33.519531 40.128906 33.304688 39.566406 C 32.136719 36.472656 29.699219 34.265625 27.804688 31.679688 C 27.378906 31.09375 26.71875 30.675781 25.960938 31.007812 C 25.097656 31.386719 25.417969 32.191406 25.5 32.859375 C 25.757812 35.058594 26.042969 37.257812 26.308594 39.453125 C 26.625 42.074219 27.832031 44.25 29.75 45.996094 C 32.480469 48.488281 33.691406 51.414062 32.976562 55.140625 C 32.597656 57.128906 32.039062 59.050781 31.441406 60.96875 C 30.980469 62.433594 29.65625 63.25 28.953125 64.472656 C 27.78125 63.835938 28.683594 62.480469 27.660156 61.816406 C 26.675781 65.351562 28.90625 68.4375 28.425781 71.726562 C 28.167969 71.707031 28.023438 71.738281 27.988281 71.6875 C 25.988281 68.925781 26.3125 65.550781 25.640625 62.445312 C 25.523438 61.910156 26.101562 61.136719 26.507812 60.585938 C 28.90625 57.339844 27.644531 52.269531 26.4375 48.003906 C 26.390625 47.847656 26.402344 47.675781 26.382812 47.511719 C 26.21875 46.234375 25.511719 45.867188 24.289062 46.246094 C 23.542969 46.480469 23.195312 47.082031 22.738281 47.609375 C 21.148438 49.445312 21.089844 51.808594 20.421875 54.078125 C 19.96875 52.515625 19.445312 51.046875 18.371094 49.847656 C 16.957031 48.265625 15.671875 46.589844 14.570312 44.777344 C 14.265625 44.273438 14.023438 43.59375 13.28125 43.71875 C 12.328125 43.878906 12.460938 44.726562 12.425781 45.402344 C 12.191406 49.941406 13.398438 54.179688 15.226562 58.257812 C 15.757812 59.445312 16.609375 60.511719 18.03125 60.804688 C 18.6875 60.941406 19.027344 61.386719 19.382812 61.894531 C 21.050781 64.28125 22.816406 66.605469 24.417969 69.035156 C 25.519531 70.707031 26.144531 72.714844 27.574219 74.148438 C 29.273438 75.851562 29.335938 77.777344 28.953125 80.046875 C 25.898438 78.089844 22.621094 77.609375 19.328125 77.207031 C 18.722656 77.132812 18.085938 77.234375 17.769531 77.871094 C 17.511719 78.390625 17.742188 78.914062 18.136719 79.214844 C 21.386719 81.679688 23.597656 85.5 27.84375 86.664062 C 28.414062 86.816406 29.144531 86.898438 29.191406 87.652344 C 29.292969 89.257812 29.921875 91.285156 29.195312 92.378906 C 28.039062 94.117188 28.699219 95.386719 29.179688 96.816406 C 29.601562 98.066406 29.816406 99.339844 30.042969 100.628906 C 30.898438 105.484375 31.476562 110.402344 33.304688 115.039062 C 33.40625 115.300781 33.5 115.609375 33.027344 115.757812 C 32.796875 115.699219 32.507812 115.632812 32.222656 115.542969 C 31.414062 115.273438 30.566406 114.328125 29.765625 115.234375 C 29.023438 116.074219 29.769531 116.921875 30.261719 117.671875 C 31.472656 119.519531 32.605469 121.425781 33.945312 123.179688 C 35.257812 124.902344 35.085938 126.554688 34.378906 128.410156 C 31.046875 126.863281 28.539062 124.488281 25.785156 122.472656 C 23.023438 120.457031 21.773438 117.769531 22.730469 114.324219 C 23.714844 110.777344 22.371094 107.664062 20.324219 105.089844 C 18.207031 102.421875 15.636719 100.113281 14.242188 96.90625 C 14.011719 96.386719 13.613281 96.109375 13.050781 96.351562 C 12.609375 96.542969 12.605469 97.003906 12.671875 97.394531 C 13.15625 100.277344 13.183594 103.203125 13.65625 106.09375 C 14.242188 109.652344 15.550781 112.628906 18.628906 114.6875 C 19.816406 115.484375 20.628906 116.546875 20.550781 118.039062 C 20.269531 118.152344 20.144531 118.238281 20.105469 118.210938 C 16.761719 115.589844 13.453125 112.929688 11.570312 108.957031 C 11.398438 108.597656 11.210938 108 10.96875 107.96875 C 9.132812 107.703125 9.34375 106.214844 9.046875 105 C 8.910156 104.417969 8.710938 103.839844 8.4375 103.3125 C 8.347656 103.136719 7.929688 103.078125 7.660156 103.074219 C 7.527344 103.074219 7.253906 103.359375 7.28125 103.445312 C 7.863281 105.410156 6.597656 106.421875 5.179688 107.152344 C 5.816406 108.890625 8.035156 108.8125 8.234375 110.605469 C 8.449219 112.523438 9.957031 113.382812 11.449219 113.753906 C 12.933594 114.125 13.917969 114.90625 14.945312 115.898438 C 16.726562 117.613281 18.308594 119.492188 20.726562 120.570312 C 22.4375 121.335938 23.910156 122.835938 25.582031 124.875 C 23.503906 124.03125 22.117188 123.160156 20.449219 123.144531 C 16.914062 123.121094 13.425781 123.539062 9.957031 124.175781 C 9.273438 124.300781 8.425781 124.394531 8.386719 125.285156 C 8.351562 126.148438 9.171875 126.394531 9.828125 126.601562 C 12.992188 127.613281 15.867188 129.359375 19.097656 130.199219 C 19.460938 130.292969 20.023438 130.183594 20.039062 130.722656 C 20.101562 132.753906 21.542969 133.261719 23.121094 133.789062 C 23.746094 133.996094 24.121094 134.71875 24.449219 135.371094 C 25.402344 137.253906 26.429688 139.101562 27.394531 140.980469 C 27.703125 141.578125 28.171875 142.15625 27.902344 142.925781 C 27.199219 142.847656 27.007812 142.164062 26.550781 141.792969 C 24.660156 140.253906 22.457031 139.714844 20.078125 139.773438 C 19.464844 139.789062 18.839844 139.976562 18.644531 140.664062 C 18.46875 141.292969 18.714844 141.851562 19.191406 142.28125 C 19.488281 142.550781 19.816406 142.789062 20.148438 143.019531 C 22.453125 144.617188 24.589844 146.441406 27.234375 147.566406 C 29.1875 148.402344 30.929688 149.851562 31.503906 151.96875 C 32.035156 153.929688 32.828125 155.757812 33.527344 157.636719 C 33.960938 158.8125 34.597656 159.964844 34.410156 161.601562 C 33.6875 160.949219 33.058594 160.566406 32.675781 160.011719 C 30.507812 156.886719 27.347656 155.332031 23.84375 154.292969 C 23.050781 154.058594 22.480469 153.433594 21.78125 153.070312 C 20.128906 152.222656 19.414062 150.316406 17.832031 149.515625 C 14.949219 148.0625 13.507812 145.402344 11.804688 142.933594 C 11.511719 142.507812 11.429688 142.015625 11.582031 141.496094 C 11.792969 140.78125 12.574219 140.050781 11.65625 139.335938 C 10.949219 138.785156 10.21875 138.199219 9.398438 137.867188 C 8.164062 137.367188 7.300781 138.085938 7.335938 139.449219 C 7.375 140.75 7.472656 142.003906 9.003906 142.535156 C 10.132812 142.925781 10.710938 143.957031 11.230469 144.90625 C 12.167969 146.609375 13.644531 147.882812 14.679688 149.46875 C 15.734375 151.082031 16.859375 152.40625 18.820312 152.855469 C 19.171875 152.9375 19.433594 153.359375 19.757812 153.597656 C 21.285156 154.730469 22.734375 155.972656 24.773438 156.195312 C 25.609375 156.289062 26.421875 156.753906 26.910156 157.636719 C 22.109375 156.914062 22.089844 156.90625 17.601562 158.902344 C 16.820312 159.25 15.664062 159.378906 15.820312 160.597656 C 15.957031 161.660156 16.992188 161.511719 17.746094 161.65625 C 19.128906 161.925781 20.542969 162.074219 21.898438 162.4375 C 23.867188 162.96875 25.644531 162.644531 27.4375 161.738281 C 30.355469 160.261719 30.96875 160.414062 33.125 162.832031 C 33.589844 163.355469 34.023438 163.917969 34.4375 164.484375 C 37.9375 169.257812 41.480469 173.984375 46.214844 177.65625 C 47.058594 178.3125 47.78125 179.117188 48.464844 180.351562 C 46.628906 179.574219 44.804688 179.820312 43.414062 178.582031 C 42.871094 178.097656 42.058594 177.992188 41.496094 178.578125 C 40.902344 179.195312 41.28125 179.941406 41.625 180.539062 C 43.863281 184.382812 46.761719 187.78125 51.265625 188.519531 C 54.453125 189.042969 56.09375 191.148438 58.121094 192.988281 C 58.621094 193.441406 59.289062 194.164062 58.765625 195.15625 C 58.191406 195 57.589844 194.898438 57.035156 194.675781 C 52.375 192.804688 47.734375 190.886719 43.066406 189.042969 C 41.214844 188.3125 40.621094 186.453125 39.351562 185.207031 C 38.628906 184.5 39.117188 183.71875 39.207031 182.945312 C 39.375 181.5625 38.722656 180.359375 38.085938 179.246094 C 36.632812 176.714844 35.019531 174.277344 32.871094 172.257812 C 32.503906 171.914062 32.132812 171.570312 31.730469 171.273438 C 31.386719 171.019531 30.96875 170.996094 30.601562 171.234375 C 30.226562 171.476562 30.148438 171.871094 30.25 172.289062 C 30.457031 173.167969 30.769531 174.03125 30.882812 174.921875 C 31.34375 178.59375 32.867188 181.625 35.9375 183.808594 C 36.777344 184.40625 37.414062 185.183594 37.964844 186.347656 C 35.546875 185.804688 33.875 184.390625 31.871094 183.734375 C 31.085938 183.476562 30.585938 182.8125 30.183594 182.082031 C 29.980469 181.714844 29.539062 181.707031 29.140625 181.601562 C 27.164062 181.082031 25.417969 179.191406 25.246094 177.332031 C 25.140625 176.179688 25.484375 174.785156 24.023438 174.332031 C 22.4375 173.839844 22.183594 175.535156 21.359375 176.285156 C 21.253906 176.382812 21.3125 176.664062 21.269531 177.152344 C 22.734375 177.316406 23.578125 178.328125 24.261719 179.648438 C 24.996094 181.058594 26.800781 181.839844 27.132812 183.417969 C 27.683594 186.054688 29.800781 184.335938 31.078125 185.042969 C 35.972656 187.753906 41.066406 190.101562 46.664062 192.113281 C 45.277344 193.203125 44.179688 193.410156 42.820312 192.898438 C 41.316406 192.339844 39.746094 191.960938 38.195312 191.535156 C 36.347656 191.03125 34.488281 191.296875 32.929688 192.230469 C 30.941406 193.425781 29.027344 194.691406 26.777344 195.359375 C 26.285156 195.503906 25.875 195.84375 25.980469 196.453125 C 26.078125 197.011719 26.523438 197.273438 27.019531 197.429688 C 28.480469 197.894531 29.996094 197.851562 31.503906 197.898438 C 33.167969 197.949219 34.855469 197.730469 36.679688 198.210938 C 35.167969 199.839844 34.089844 201.460938 33.089844 203.210938 C 31.738281 205.59375 31.703125 208.179688 31.128906 210.6875 C 31.625 211.035156 32.117188 211.382812 32.613281 211.734375 C 33.9375 210.179688 35.664062 209.175781 37.386719 208.128906 C 41.152344 205.84375 44.5 203.179688 45.097656 198.359375 C 45.183594 197.671875 45.382812 196.988281 45.585938 196.316406 C 46.257812 194.09375 48.148438 192.964844 50.242188 193.890625 C 54.996094 195.988281 60.082031 197.578125 63.601562 201.785156 C 63.945312 202.199219 64.65625 202.457031 64.117188 203.191406 C 60.085938 201.28125 53.65625 200.910156 49.667969 202.34375 C 49.1875 202.515625 48.652344 202.671875 48.542969 203.222656 C 48.40625 203.90625 48.84375 204.394531 49.40625 204.667969 C 50.675781 205.277344 52.066406 205.671875 53.246094 206.417969 C 57.511719 209.109375 61.882812 209.449219 66.449219 207.316406 C 67.933594 206.625 69.367188 206.597656 70.730469 207.582031 C 71.5625 208.1875 72.535156 208.421875 73.472656 208.785156 C 75.835938 209.695312 77.949219 210.9375 79.65625 212.949219 C 81.402344 215.007812 83.464844 216.804688 85.417969 218.6875 C 86.070312 219.320312 86.773438 219.894531 87.214844 221.191406 C 83.65625 220.425781 80.386719 222.101562 76.949219 221.484375 C 76.34375 221.375 75.695312 221.480469 75.503906 222.222656 C 75.351562 222.824219 75.84375 223.128906 76.261719 223.382812 C 78.757812 224.925781 80.640625 227.238281 83.148438 228.777344 C 85.4375 230.183594 87.761719 231.261719 90.542969 230.652344 C 94.386719 229.8125 96.925781 231.441406 98.582031 235.011719 C 97.917969 235.535156 96.484375 235.640625 96.855469 236.941406 C 97.1875 238.078125 98.355469 237.683594 99.195312 237.859375 C 102.957031 238.652344 106.625 239.800781 109.742188 242.070312 C 113 244.4375 116.253906 246.789062 119.652344 248.949219 C 121.945312 250.410156 124.585938 251.734375 126 253.957031 C 127.226562 255.886719 128.78125 256.4375 130.582031 257.285156 C 136.214844 259.933594 141.945312 262.429688 147.128906 265.953125 C 147.953125 266.511719 148.875 266.984375 149.820312 267.289062 C 154.65625 268.84375 158.949219 271.453125 163.070312 274.296875 C 166.328125 276.550781 169.800781 277.835938 173.71875 278.035156 C 175.347656 278.117188 176.902344 278.503906 178.378906 279.195312 C 181.171875 280.5 183.71875 282.40625 186.996094 282.535156 C 187.738281 282.566406 188.5 283.101562 189.1875 283.511719 C 193.621094 286.160156 198.5625 287.617188 203.300781 289.546875 C 205.265625 290.347656 207.285156 290.925781 209.394531 291.238281 C 210.777344 291.445312 212.496094 291.453125 213.402344 292.277344 C 214.5625 293.335938 215.6875 293.417969 216.929688 293.296875 C 220.222656 292.972656 223.527344 294.085938 226.816406 293.125 C 227.351562 292.96875 228.027344 293.136719 228.597656 293.292969 C 229.5 293.542969 230.394531 293.632812 231.277344 293.351562 C 232.632812 292.925781 233.914062 293.222656 235.082031 293.828125 C 237.605469 295.132812 240.347656 295.820312 243 296.753906 C 246.320312 297.929688 249.769531 296.933594 253.160156 296.992188 C 253.253906 296.992188 253.355469 296.941406 253.445312 296.898438 C 253.832031 296.726562 254.167969 296.496094 254.15625 296.023438 Z M 84.390625 161.746094 C 83.5 163.371094 82.046875 164.007812 81.058594 165.125 C 80.527344 165.726562 79.796875 166.589844 79.160156 164.789062 C 78.6875 163.457031 77.214844 165.035156 76.195312 164.722656 C 77.679688 161.886719 79.363281 161.246094 84.390625 161.746094 Z M 70.285156 161.941406 C 70.058594 160.292969 70.605469 159.359375 71.003906 158.363281 C 71.6875 156.648438 73.003906 155.304688 73.113281 153.191406 C 73.175781 151.957031 74.898438 150.9375 77.039062 150.46875 C 75.476562 154.882812 74.113281 158.875 70.285156 161.941406 Z M 61.953125 131.957031 C 60.425781 129.425781 60.992188 126.894531 61.6875 123.746094 C 63.132812 125.929688 63.34375 127.941406 63.804688 129.863281 C 64.160156 131.347656 62.582031 131.136719 61.953125 131.957031 Z M 71.765625 135.800781 C 71.265625 138.800781 71.265625 138.800781 68.761719 140.839844 C 68.535156 137.367188 68.679688 137.140625 71.765625 135.800781 Z M 56.695312 141.296875 C 56.472656 141.429688 56.148438 141.554688 56.011719 141.164062 C 55.953125 140.996094 55.9375 140.757812 56.015625 140.609375 C 56.203125 140.25 56.453125 140.410156 56.679688 140.601562 C 56.828125 140.832031 57.035156 141.09375 56.695312 141.296875 Z M 58.136719 142.71875 C 58.925781 143.421875 59.101562 144.109375 59.085938 145.296875 C 58.253906 144.472656 57.96875 143.828125 58.136719 142.71875 Z M 63.726562 101.375 C 63.023438 103.164062 61.519531 103.699219 60.269531 104.511719 C 60.867188 102.988281 61.265625 101.25 63.726562 101.375 Z M 55.328125 89.875 C 55.777344 88.761719 55.894531 87.746094 56.617188 86.855469 C 57.328125 89.160156 57.328125 89.160156 55.328125 89.875 Z M 68.128906 84.726562 C 67.136719 86.847656 65.851562 88.011719 63.367188 88.539062 C 64.417969 86.171875 66 85.402344 68.128906 84.726562 Z M 57.746094 96.273438 C 57.628906 95.523438 58.144531 95.089844 58.472656 94.558594 C 58.976562 95.460938 58.046875 95.726562 57.746094 96.273438 Z M 45.5625 48.1875 C 44.898438 49.875 44.109375 50.765625 43.136719 52.003906 C 42.910156 50.6875 42.421875 49.753906 40.894531 50.371094 C 42.15625 48.992188 43.644531 48.722656 45.5625 48.1875 Z M 31.527344 18.953125 C 30.558594 16.46875 30.582031 14.207031 31.917969 11.480469 C 32.503906 13.160156 32.972656 14.394531 33.363281 15.652344 C 33.921875 17.460938 31.082031 17.136719 31.527344 18.953125 Z M 35.496094 21.269531 C 35.953125 22.023438 35.261719 22.566406 35.179688 23.550781 C 34.683594 22.4375 35 21.828125 35.496094 21.269531 Z M 41 30.929688 C 41.578125 29.546875 41.578125 29.546875 43.265625 28.539062 C 42.734375 29.945312 41.980469 30.542969 41 30.929688 Z M 44.089844 24.972656 C 44.414062 24.777344 44.8125 24.703125 45.691406 24.390625 C 45.261719 25.28125 45.132812 25.664062 44.910156 25.980469 C 44.621094 26.386719 44.230469 26.832031 43.703125 26.34375 C 42.996094 25.695312 43.574219 25.289062 44.089844 24.972656 Z M 30.914062 42.050781 C 30.667969 41.511719 30.480469 40.859375 30.058594 40.496094 C 27.425781 38.230469 27.40625 38.253906 27.570312 34.3125 C 30.667969 37.253906 32.816406 40.394531 32.578125 45.167969 C 31.390625 44.003906 31.328125 42.945312 30.914062 42.050781 Z M 34.359375 45.5625 C 34.605469 46.667969 34.394531 47.34375 33.933594 48.542969 C 33.707031 47.339844 33.835938 46.621094 34.359375 45.5625 Z M 14.359375 48.007812 C 18.273438 50.9375 19.257812 54.980469 19.421875 59.847656 C 16.3125 58.128906 14.15625 52.878906 14.359375 48.007812 Z M 22.484375 56.011719 C 22.535156 54.015625 22.585938 51.996094 23.269531 50.09375 C 23.511719 49.421875 23.335938 48.296875 24.441406 48.246094 C 25.269531 48.203125 25 49.488281 25.199219 50.164062 C 26.0625 53.109375 26.722656 56.914062 25.84375 58.40625 C 25.515625 58.964844 25.570312 59.976562 24.625 59.765625 C 23.914062 59.605469 23.027344 59.371094 22.871094 58.371094 C 22.746094 57.582031 22.464844 56.792969 22.484375 56.011719 Z M 21.210938 59.941406 C 22.867188 61.832031 24.035156 63.195312 24.132812 65.164062 C 22.675781 63.953125 21.183594 62.773438 21.210938 59.941406 Z M 19.75 110.53125 C 19.46875 109.886719 19.234375 109.21875 18.9375 108.582031 C 18.777344 108.238281 18.609375 107.785156 18.085938 107.933594 C 17.4375 108.113281 17.457031 108.65625 17.585938 109.148438 C 17.804688 110.003906 18.089844 110.84375 18.140625 111.75 C 14.910156 109.285156 15.421875 105.570312 15.007812 102.125 C 18.4375 104.917969 21.425781 107.9375 21.382812 113.070312 C 20.121094 112.414062 20.101562 111.359375 19.75 110.53125 Z M 24.382812 144.257812 C 23.652344 143.65625 23.015625 142.941406 22.25 142.1875 C 23.664062 141.742188 24.570312 142.226562 25.382812 143.007812 C 25.675781 143.289062 25.9375 143.613281 25.65625 144.007812 C 25.332031 144.460938 24.804688 144.609375 24.382812 144.257812 Z M 19.230469 160.378906 C 21.191406 158.882812 22.757812 158.371094 24.449219 158.886719 C 25.332031 159.15625 25.179688 160.132812 25.113281 160.929688 C 23.269531 161.53125 21.632812 160.578125 19.230469 160.378906 Z M 32.917969 174.734375 C 34.796875 176.671875 36.066406 178.644531 36.78125 181.035156 C 35.515625 179.078125 32 178.613281 32.917969 174.734375 Z M 30.511719 196.261719 C 31.941406 194.378906 33.582031 193.625 35.492188 193.011719 C 38.070312 192.1875 38.148438 195.246094 39.992188 195.480469 C 36.980469 196.878906 33.902344 196.15625 30.511719 196.261719 Z M 42.636719 200.09375 C 42.441406 202.734375 39.113281 205.753906 33.515625 208.359375 C 33.308594 203.667969 36.699219 199.234375 40.945312 198.628906 C 40.957031 198.8125 41.015625 199.003906 40.972656 199.171875 C 40.777344 199.929688 39.121094 200.40625 40.183594 201.285156 C 41 201.960938 41.710938 200.78125 42.371094 200.230469 C 42.445312 200.167969 42.546875 200.140625 42.636719 200.09375 Z M 52.234375 204.066406 C 55.769531 202.65625 58.839844 202.957031 61.996094 204.027344 C 61.816406 204.359375 61.753906 204.628906 61.652344 204.644531 C 60.714844 204.777344 59.183594 204.15625 58.980469 205.246094 C 58.679688 206.851562 60.808594 205.664062 61.410156 206.800781 C 57.851562 207.859375 55.402344 205.535156 52.234375 204.066406 Z M 79.6875 188.617188 C 80.207031 186.773438 81.019531 184.941406 82.621094 183.5625 C 83.695312 187.636719 83.523438 191.480469 81.410156 195.347656 C 80.832031 194.554688 81.214844 193.90625 81.207031 193.3125 C 81.203125 192.898438 81.191406 192.324219 80.839844 192.269531 C 78.046875 191.8125 79.351562 189.816406 79.6875 188.617188 Z M 58.667969 168.855469 C 59.394531 170.613281 60.597656 172.125 61.132812 173.984375 C 61.300781 174.566406 62.058594 174.980469 62.546875 175.46875 C 60.351562 174.496094 60.375 174.511719 59.324219 176.523438 C 58.96875 177.203125 58.808594 178.035156 57.820312 178.605469 C 57.363281 175.472656 57.210938 172.394531 56.132812 169.472656 C 55.105469 166.683594 53.507812 164.089844 52.925781 160.722656 C 55.683594 163.15625 57.429688 165.855469 58.667969 168.855469 Z M 49.742188 146.367188 C 49.738281 146.847656 49.292969 147.289062 48.746094 147.351562 C 48.28125 147.40625 48.109375 146.992188 47.921875 146.636719 C 45.789062 142.582031 42.949219 138.949219 41.496094 134.472656 C 40.710938 132.050781 39.089844 129.898438 39.066406 127.050781 C 40.527344 126.8125 40.972656 127.945312 41.714844 128.523438 C 45 131.074219 47.53125 134.160156 49.167969 138.082031 C 50.328125 140.871094 49.753906 143.601562 49.742188 146.367188 Z M 49.210938 77.492188 C 49.792969 80.25 49.539062 81.464844 47.796875 83.890625 C 48.851562 81.914062 46.707031 79.261719 49.210938 77.492188 Z M 39.886719 80.511719 C 40.136719 80.648438 40.382812 80.898438 40.5 81.15625 C 42.117188 84.648438 44.730469 87.726562 45.039062 92.304688 C 42.414062 90.945312 40.773438 89.105469 39.226562 87.167969 C 38.351562 86.078125 37.539062 84.929688 36.632812 83.863281 C 34.566406 81.425781 34.234375 78.785156 35.753906 75.1875 C 36.523438 77.886719 37.949219 79.433594 39.886719 80.511719 Z M 40.988281 75.972656 C 41.035156 76.507812 41.179688 77.207031 40.226562 77.257812 C 39.5 77.296875 38.773438 77.898438 38.191406 76.820312 C 36.949219 74.53125 37.148438 72.085938 36.886719 69.097656 C 39.402344 71.199219 40.75 73.265625 40.988281 75.972656 Z M 32 69.125 C 33.910156 71.75 34.027344 72.371094 33.347656 75.171875 C 30.683594 73.613281 31.789062 71.253906 32 69.125 Z M 21.140625 79.441406 C 23.859375 79.539062 26.4375 79.839844 28.507812 81.863281 C 29.46875 82.800781 29.386719 83.769531 28.980469 85.207031 C 25.171875 84.734375 23.503906 81.648438 21.140625 79.441406 Z M 31.800781 80.335938 C 33.597656 81.976562 34.566406 83.929688 36.378906 86.03125 C 33.03125 85.382812 32.039062 84.019531 31.800781 80.335938 Z M 32.578125 118.253906 C 34.65625 118.210938 34.65625 118.210938 34.921875 121.328125 C 33.832031 120.410156 33.050781 119.46875 32.578125 118.253906 Z M 37.878906 118.460938 C 37.058594 117.953125 36.621094 117.210938 36.332031 116.320312 C 35.179688 112.78125 33.796875 109.308594 33.363281 105.566406 C 33.234375 104.46875 33.078125 103.359375 32.785156 102.292969 C 32.285156 100.480469 32.101562 98.820312 33.449219 97.199219 C 33.988281 96.550781 34.152344 95.535156 34.328125 94.65625 C 34.453125 94.027344 34.816406 93.234375 33.996094 92.742188 C 33.140625 92.230469 32.835938 93.277344 31.910156 93.480469 C 31.828125 91.367188 31.75 89.308594 31.664062 87.144531 C 33.300781 86.917969 34.613281 87.441406 35.863281 88.003906 C 40.511719 90.09375 43.855469 93.566406 46.449219 97.914062 C 47.367188 99.453125 45.449219 99.605469 45.546875 100.792969 C 47.601562 101.652344 48.304688 103.457031 48.90625 105.609375 C 49.679688 108.394531 51.132812 110.988281 52.136719 113.71875 C 52.765625 115.433594 53.683594 117.261719 52.007812 118.988281 C 51.824219 119.175781 51.679688 119.628906 51.78125 119.824219 C 52.972656 122.140625 51.523438 124.335938 51.527344 126.589844 C 51.53125 127.898438 51.515625 129.214844 51.671875 130.511719 C 51.921875 132.585938 51.429688 134.464844 50.578125 136.378906 C 47.484375 132.632812 45.742188 127.503906 46.011719 123.214844 C 46.085938 121.980469 46.308594 120.921875 47.265625 119.957031 C 48.949219 118.265625 49.375 116.074219 48.851562 113.796875 C 48.515625 112.332031 47.90625 110.929688 47.363281 109.523438 C 47.152344 108.972656 46.847656 108.328125 46.121094 108.398438 C 45.453125 108.460938 45.152344 109.054688 44.941406 109.636719 C 44.460938 110.957031 44.015625 112.289062 43.511719 113.601562 C 43.234375 114.320312 43.371094 115.238281 42.460938 115.773438 C 41.777344 114.722656 41.40625 113.507812 41.550781 112.367188 C 42.015625 108.695312 39.691406 106.125 38.171875 103.234375 C 37.898438 102.714844 37.375 102.210938 36.695312 102.484375 C 36.207031 102.683594 36.125 103.246094 36.042969 103.765625 C 35.394531 107.859375 35.949219 111.570312 39.214844 114.527344 C 39.863281 115.113281 40.585938 115.691406 40.820312 116.664062 C 41.714844 120.359375 42.890625 123.980469 44.375 127.839844 C 42.585938 127.515625 42.617188 126.566406 42.402344 125.679688 C 41.699219 122.785156 40.558594 120.125 37.878906 118.460938 Z M 44.238281 121.527344 C 43.515625 120.351562 43.035156 119.105469 43.203125 117.683594 C 44.003906 118.820312 44.332031 120.113281 44.238281 121.527344 Z M 46.238281 111.523438 C 47.132812 113.074219 47.617188 114.210938 47.328125 115.5625 C 46.421875 115.925781 45.820312 114.996094 44.894531 115.519531 C 45.035156 114.023438 45.242188 112.894531 46.238281 111.523438 Z M 39.339844 111.949219 C 37.828125 110.179688 37.09375 108.492188 37.886719 106.347656 C 38.585938 108.050781 40.660156 109.402344 39.339844 111.949219 Z M 37.976562 121.03125 C 39.242188 121.359375 39.554688 122.429688 39.902344 123.453125 C 40.050781 123.878906 39.859375 124.207031 39.417969 124.367188 C 38.949219 124.539062 38.605469 124.285156 38.445312 123.929688 C 38.035156 123.027344 37.746094 122.082031 37.976562 121.03125 Z M 29.480469 128.46875 C 29.636719 129.035156 29.664062 129.597656 29.128906 130.046875 C 28.792969 129.496094 28.648438 128.941406 29 128.375 C 29.03125 128.320312 29.460938 128.390625 29.480469 128.46875 Z M 12.3125 125.625 C 14.605469 124.9375 16.429688 124.765625 18.507812 124.851562 C 17.402344 126.472656 18.242188 126.945312 19.605469 126.859375 C 21.382812 126.75 23.140625 126.558594 25.171875 127.503906 C 20.382812 129.632812 16.585938 127.867188 12.3125 125.625 Z M 24.046875 131.183594 C 23.921875 130.648438 23.46875 129.96875 24.332031 129.6875 C 24.976562 129.476562 25.1875 130.078125 25.304688 130.554688 C 25.597656 131.75 26.226562 132.761719 26.929688 133.742188 C 27.378906 134.371094 27.289062 134.964844 26.84375 135.65625 C 26.167969 133.957031 24.460938 132.988281 24.046875 131.183594 Z M 36.753906 147.617188 C 37.296875 148.582031 37.0625 149.527344 36.832031 150.464844 C 36.726562 150.890625 36.457031 151.160156 35.996094 151.023438 C 35.570312 150.898438 35.375 150.535156 35.453125 150.117188 C 35.628906 149.183594 35.722656 148.1875 36.753906 147.617188 Z M 33.628906 151.777344 C 34.457031 152.535156 34.496094 153.574219 34.730469 154.808594 C 33.496094 153.527344 33.476562 153.503906 33.628906 151.777344 Z M 38.164062 162.125 C 37.386719 161.667969 37.800781 160.964844 37.613281 159.878906 C 38.617188 160.753906 39.183594 161.175781 38.902344 161.945312 C 38.808594 162.207031 38.445312 162.289062 38.164062 162.125 Z M 40.519531 159.867188 C 39.878906 160.199219 39.285156 159.28125 38.929688 158.726562 C 38.222656 157.613281 36.519531 157.503906 36.25 156.046875 C 35.980469 154.566406 37.289062 153.765625 37.84375 152.632812 C 39.109375 150.066406 38.640625 147.316406 38.464844 144.613281 C 38.425781 143.972656 37.941406 143.535156 37.285156 143.414062 C 36.566406 143.28125 36.164062 143.761719 35.855469 144.292969 C 34.550781 146.578125 33.84375 149.054688 33.554688 151.660156 C 32.839844 151.351562 32.777344 150.621094 32.546875 149.996094 C 31.511719 147.164062 30.289062 144.382812 29.480469 141.488281 C 28.796875 139.027344 28.273438 136.4375 30.546875 134.257812 C 31.765625 133.089844 31.285156 131.175781 32.167969 129.53125 C 33.933594 130.238281 35.601562 130.828125 35.792969 133.183594 C 35.84375 133.820312 36.324219 134.488281 36.757812 135.023438 C 41.703125 141.105469 45.757812 147.761719 49.503906 154.625 C 50.132812 155.78125 50.945312 156.855469 49.65625 158.132812 C 49.027344 158.757812 49.539062 159.433594 49.929688 160.03125 C 50.367188 160.699219 51.148438 161.0625 51.433594 161.882812 C 52.292969 164.339844 53.203125 166.777344 54.105469 169.265625 C 53.078125 169.429688 53.148438 168.574219 52.980469 168.160156 C 51.410156 164.367188 48.546875 161.972656 44.742188 160.785156 C 43.410156 160.367188 42.261719 158.953125 40.519531 159.867188 Z M 45.660156 168.464844 C 43.28125 166.996094 41.15625 165.375 41.417969 161.789062 C 42.972656 164.234375 44.316406 166.347656 45.660156 168.464844 Z M 38.6875 165.429688 C 42.460938 167.421875 44.3125 169.875 44.65625 173.335938 C 41.453125 171.828125 40.144531 170.09375 38.6875 165.429688 Z M 47.238281 167.097656 C 47.015625 167.289062 46.375 166.417969 46.019531 165.925781 C 45.265625 164.890625 44.3125 163.960938 44.246094 162.367188 C 47.472656 163.160156 49.566406 165.078125 51.269531 168.234375 C 49.546875 167.898438 48.953125 165.660156 47.238281 167.097656 Z M 46.71875 173.046875 C 46.367188 172.109375 46.558594 171.214844 47.070312 170.484375 C 47.714844 169.566406 48.546875 170.363281 49.238281 170.550781 C 52.667969 171.464844 55.324219 174.742188 55.464844 178.296875 C 55.523438 179.75 56.167969 181.167969 55.863281 182.875 C 51.464844 180.617188 48.386719 177.5 46.71875 173.046875 Z M 44.570312 181.488281 C 48.5 181.28125 51.203125 183.097656 52.765625 187.34375 C 49.113281 186.171875 45.957031 185.078125 44.570312 181.488281 Z M 53.589844 184 C 55.996094 185.3125 57.777344 187.074219 58.242188 190.414062 C 55.644531 188.617188 54.378906 186.480469 53.589844 184 Z M 60.53125 178.351562 C 60.378906 180.914062 60.378906 180.914062 58.667969 183.132812 C 58.015625 180.949219 59.367188 179.867188 60.53125 178.351562 Z M 64.605469 200.058594 C 61.714844 197.171875 60.152344 193.769531 59.933594 189.007812 C 65.507812 194.675781 69.15625 201.199219 74.21875 206.691406 C 72.121094 206.476562 68.152344 203.601562 64.605469 200.058594 Z M 84.117188 212.179688 C 83.726562 212.550781 83.089844 212.707031 82.742188 212.398438 C 80.957031 210.832031 78.90625 209.414062 78.449219 206.851562 C 78.152344 205.152344 77.546875 203.554688 76.945312 201.96875 C 76.585938 201.023438 75.523438 200.445312 74.910156 201.542969 C 74.148438 202.910156 73.710938 202.464844 73.074219 201.628906 C 71.007812 198.914062 68.910156 196.222656 66.910156 193.460938 C 65.195312 191.097656 63.402344 188.8125 61.164062 186.917969 C 60.402344 186.277344 59.78125 185.570312 60.59375 184.65625 C 62.773438 182.191406 62.738281 179.375 62.070312 176.429688 C 61.957031 175.933594 62.199219 175.691406 62.550781 175.476562 C 64.960938 179.527344 66.667969 183.914062 68.628906 188.179688 C 70.328125 191.871094 73.414062 194.597656 75.804688 197.816406 C 78.933594 202.027344 81.171875 206.765625 84.089844 211.09375 C 84.320312 211.4375 84.464844 211.851562 84.117188 212.179688 Z M 79.8125 223.578125 C 83.066406 223.34375 86.269531 222.601562 89.414062 223.925781 C 89.992188 224.167969 90.464844 224.511719 90.703125 225.105469 C 90.804688 225.347656 90.949219 225.683594 90.859375 225.875 C 90.113281 227.457031 90.085938 227.792969 91.089844 228.886719 C 85.703125 230.078125 82.960938 226.503906 79.8125 223.578125 Z M 95.933594 227.476562 C 93.792969 224.203125 90.746094 221.660156 88.570312 218.402344 C 87.9375 217.457031 86.929688 216.769531 85.925781 215.796875 C 90.429688 216.609375 96.664062 223.007812 98.476562 228.542969 C 97.195312 228.707031 96.484375 228.316406 95.933594 227.476562 Z M 98.289062 231.019531 C 101.195312 231.707031 102.570312 233.5625 103.765625 235.777344 C 101.378906 236.003906 100.699219 235.414062 98.289062 231.019531 Z M 158.710938 268.550781 C 156.460938 266.960938 153.90625 266.152344 151.394531 265.136719 C 148.433594 263.9375 145.683594 262.21875 142.851562 260.710938 C 141.253906 259.863281 139.738281 258.835938 138.078125 258.15625 C 134.929688 256.867188 132.21875 255.230469 130.71875 251.941406 C 130.167969 250.726562 129.195312 249.34375 127.457031 250.832031 C 127.152344 251.09375 126.65625 250.972656 126.335938 250.699219 C 123.296875 248.097656 119.546875 246.476562 116.4375 243.703125 C 117.441406 243.207031 118.148438 243.65625 118.847656 243.867188 C 122.117188 244.851562 125.34375 245.984375 128.644531 246.855469 C 132.984375 248.003906 136.121094 251.074219 139.65625 253.496094 C 143.710938 256.269531 147.578125 259.296875 151.78125 261.875 C 155.179688 263.957031 157.800781 267.125 161.277344 269.152344 C 160.179688 270.105469 159.402344 269.042969 158.710938 268.550781 Z M 161.359375 269.191406 C 161.960938 269.285156 162.410156 269.664062 162.960938 270.113281 C 162.238281 269.96875 161.726562 269.699219 161.359375 269.191406 Z M 192.441406 282.242188 C 199.925781 283.917969 206.871094 287.273438 214.253906 289.273438 C 206.300781 288.996094 199.496094 285.242188 192.441406 282.242188 Z M 238.558594 292.742188 C 242.054688 292.089844 244.421875 292.484375 248.453125 294.238281 C 245.128906 295.40625 245.199219 295.023438 238.558594 292.742188 Z M 238.558594 292.742188 "/></g></g></g></g></svg>