<svg xmlns="http://www.w3.org/2000/svg" xmlns:xlink="http://www.w3.org/1999/xlink" width="219" zoomAndPan="magnify" viewBox="0 0 164.25 297.75" height="397" preserveAspectRatio="xMidYMid meet" version="1.2"><defs><clipPath id="eecfeb1de9"><path d="M 26 1.789062 L 162.5 1.789062 L 162.5 296.667969 L 26 296.667969 Z M 26 1.789062 "/></clipPath><clipPath id="5235127be5"><path d="M 276.316406 86.816406 L 135.285156 -19.414062 L -38.277344 211.183594 L 102.753906 317.410156 Z M 276.316406 86.816406 "/></clipPath><clipPath id="5d624f40ef"><path d="M 276.316406 86.816406 L 135.285156 -19.414062 L -57.015625 236.078125 L 84.015625 342.304688 Z M 276.316406 86.816406 "/></clipPath></defs><g id="603be3fc0a"><g clip-rule="nonzero" clip-path="url(#eecfeb1de9)"><g clip-rule="nonzero" clip-path="url(#5235127be5)"><g clip-rule="nonzero" clip-path="url(#5d624f40ef)"><path style=" stroke:none;fill-rule:nonzero;fill:#c5a65a;fill-opacity:1;" d="M 59.019531 131.558594 C 55.378906 122.207031 54.769531 112.292969 59.371094 102.746094 C 60.925781 99.515625 62.6875 96.351562 62.816406 92.632812 C 62.023438 91.726562 63.257812 90.949219 62.984375 90.078125 C 63.21875 86.445312 62.710938 82.890625 61.898438 79.3125 C 65.324219 83.585938 67.078125 88.425781 67.308594 93.828125 C 67.664062 98.980469 66.640625 103.976562 65.632812 108.988281 C 64.21875 116.019531 63.25 123.097656 64.03125 130.300781 C 64.195312 130.777344 64.355469 131.246094 64.511719 131.722656 C 65.226562 131.339844 65.53125 130.824219 65.054688 130.058594 C 65.574219 129.136719 65.976562 128.222656 66.265625 127.15625 C 68.0625 120.402344 69.382812 113.402344 72.167969 107.058594 C 75.445312 99.601562 78.582031 92.3125 79.84375 84.136719 C 81.089844 76.066406 82.765625 68.089844 83.261719 59.878906 C 83.796875 51.105469 88.75 44.613281 94.882812 38.640625 C 99.121094 34.515625 104.855469 31.609375 106.796875 25.378906 C 107.078125 24.46875 107.90625 24.1875 108.628906 24.390625 C 109.832031 24.738281 109.449219 25.78125 109.132812 26.539062 C 108.28125 28.59375 107.433594 30.632812 107.375 33.273438 C 109.164062 31.316406 109.242188 28.828125 110.957031 27.191406 C 119.230469 19.296875 128.648438 13.386719 139.617188 9.964844 C 146.335938 7.871094 153.449219 6.636719 159.015625 1.824219 C 159.835938 1.117188 160.511719 -0.132812 161.609375 0.726562 C 163 1.808594 161.753906 2.890625 161.066406 3.832031 C 155.722656 11.152344 149.179688 17.132812 140.925781 20.964844 C 136.519531 23.007812 132.734375 25.863281 128.878906 28.703125 C 127.925781 29.40625 127.121094 30.007812 127.449219 31.203125 C 127.925781 32.941406 128.984375 31.980469 129.824219 31.535156 C 130.945312 30.933594 131.585938 31.6875 132.011719 32.429688 C 132.164062 32.691406 131.652344 33.699219 131.246094 33.863281 C 125.445312 36.160156 123.464844 41.964844 119.953125 46.292969 C 114.675781 52.800781 109.546875 59.375 102.132812 63.609375 C 89.785156 70.652344 82.640625 81.449219 79.085938 95.410156 C 87.058594 88.140625 97.113281 84.386719 104.8125 76.171875 C 104.820312 80.65625 101.449219 81.574219 99.265625 83.21875 C 90.410156 89.878906 80.429688 95.273438 75.78125 106.308594 C 71.617188 116.195312 67.945312 126.164062 66.820312 138.082031 C 74.257812 129.046875 78.910156 119.613281 84.585938 110.84375 C 89.707031 102.9375 94.46875 94.625 102.789062 89.398438 C 106.703125 86.945312 111.195312 85.355469 114.207031 81.5625 C 114.839844 80.761719 115.921875 80.550781 116.691406 81.089844 C 117.867188 81.90625 116.777344 82.71875 116.28125 83.339844 C 115.304688 84.558594 114.875 85.964844 114.320312 87.386719 C 112.074219 93.132812 110.300781 99.328125 106.191406 103.929688 C 100.46875 110.34375 92.847656 114.234375 84.746094 117.109375 C 83.292969 117.625 81.789062 118.070312 80.925781 119.929688 C 79.03125 124.039062 77.148438 128.292969 74.070312 131.652344 C 66.773438 139.613281 64.296875 149.109375 64.039062 159.597656 C 63.792969 169.8125 64.121094 180.019531 62.785156 190.246094 C 61.699219 198.578125 64.457031 206.734375 66.636719 215.980469 C 68.632812 211.671875 68.296875 208.164062 68.800781 204.863281 C 70.8125 191.769531 76.855469 179.792969 79.007812 166.722656 C 80.191406 159.527344 86.359375 155.007812 89.441406 147.476562 C 91.617188 152.792969 91.113281 156.847656 90.902344 161.886719 C 94.390625 156.878906 96.074219 152.183594 97.472656 147.335938 C 100.511719 136.796875 106.992188 129.460938 117.398438 125.578125 C 121.320312 124.113281 125.25 122.402344 128.710938 120.105469 C 131.121094 118.507812 132.929688 118.785156 135.84375 119.46875 C 134.804688 120.160156 134.464844 120.550781 134.070312 120.621094 C 126.8125 121.882812 121.902344 126.257812 118.714844 132.597656 C 116.355469 137.28125 115.953125 142.8125 114.019531 147.441406 C 108.972656 159.546875 101.738281 170.253906 89.796875 177.203125 C 80.945312 182.355469 74.109375 189.433594 71.667969 200.132812 C 70.554688 205.027344 70.476562 209.96875 69.53125 214.824219 C 67.953125 222.925781 69.230469 231.023438 71.492188 238.558594 C 74.871094 249.816406 81.074219 260.144531 83.101562 271.992188 C 84.347656 266.324219 84.316406 260.664062 84.507812 255.011719 C 84.8125 245.847656 87.066406 236.855469 86.308594 227.550781 C 84.878906 210.097656 90.28125 195.214844 104.996094 184.917969 C 109.671875 181.644531 114.058594 177.027344 121.777344 176.902344 C 116.230469 181.902344 114.617188 188.113281 111.371094 193.378906 C 110.679688 194.507812 107.332031 197.210938 112.070312 198.277344 C 113.109375 198.507812 112.6875 200.027344 112.433594 201.136719 C 111.355469 205.777344 109.515625 210.304688 106.238281 213.488281 C 102.203125 217.402344 99.03125 221.882812 95.761719 226.3125 C 90.496094 233.453125 87.59375 241.609375 86.980469 250.472656 C 86.738281 253.921875 87.109375 257.417969 87.109375 260.890625 C 87.105469 269.300781 84.035156 277.285156 83.4375 285.558594 C 82.5 298.390625 83.203125 311.214844 85.203125 323.972656 C 86.144531 329.960938 86.019531 336.042969 84.234375 342.019531 C 83.675781 336.359375 82.800781 330.785156 82.15625 325.183594 C 80.714844 312.617188 79.929688 300.039062 80.585938 287.332031 C 81.292969 273.578125 79.71875 260.300781 71.445312 248.328125 C 64.714844 238.582031 58.757812 228.25 50.15625 220.035156 C 40.808594 211.109375 38.125 199.640625 38.074219 187.769531 C 38.046875 180.679688 35.898438 175.445312 31.929688 170.136719 C 25.820312 161.96875 25.269531 152.542969 26.675781 142.835938 C 26.820312 141.867188 27.335938 140.914062 28.351562 141.003906 C 29.191406 141.074219 29.433594 142.15625 29.25 142.886719 C 27.210938 150.867188 31.699219 156.660156 35.703125 162.671875 C 38.769531 167.28125 43.394531 170.574219 45.933594 175.667969 C 51.183594 186.203125 53.351562 197.539062 55.160156 208.992188 C 56.441406 217.101562 61.175781 223.246094 66.269531 230.015625 C 66.742188 224.644531 65.066406 220.410156 64.007812 216.152344 C 61.148438 204.617188 62.21875 192.601562 59.257812 181.070312 C 57.820312 175.476562 56.382812 170.085938 53.289062 165.0625 C 48.464844 157.226562 43.890625 149.320312 42.625 139.773438 C 41.019531 127.671875 43.90625 116.066406 45.167969 104.269531 C 45.261719 103.425781 45.726562 102.5 46.785156 102.6875 C 49.523438 118.929688 49.878906 135.5625 56.835938 150.839844 C 57.050781 151.320312 57.378906 152.292969 56.269531 152.433594 C 59.621094 154.328125 58.148438 159.023438 61.238281 161.574219 C 61.363281 159.9375 61.335938 158.742188 61.5625 157.589844 C 63.3125 148.652344 62.386719 140.210938 59.019531 131.558594 Z M 66.132812 94.136719 C 65.066406 92.878906 67.332031 89.9375 63.964844 89.84375 C 64.746094 90.78125 63.503906 91.613281 63.816406 92.523438 C 64.277344 97.0625 62.203125 101.019531 60.492188 104.90625 C 57.171875 112.441406 59.269531 119.710938 60.78125 127.132812 C 61.675781 115.960938 64.878906 105.210938 66.132812 94.136719 Z M 104.804688 33.378906 C 86.886719 50.339844 88.210938 43.148438 84.765625 75.640625 C 93.574219 62.089844 103.054688 49.515625 104.804688 33.378906 Z M 154.78125 7.390625 C 144.066406 11.757812 133.203125 13.785156 123.964844 20.0625 C 117.378906 24.535156 111.53125 29.839844 106.945312 36.15625 C 104.746094 39.183594 104.722656 43.824219 102.648438 48.390625 C 111.070312 40.296875 121.296875 35.777344 128.597656 27.261719 C 135.621094 19.054688 148.203125 17.679688 154.78125 7.390625 Z M 122.648438 38.015625 C 110.867188 44.910156 98.867188 51.609375 93.996094 65.601562 C 106.511719 59.519531 115.8125 50.0625 122.648438 38.015625 Z M 86.527344 113.953125 C 103.59375 106.992188 107.910156 99.785156 111.253906 87.71875 C 96.742188 96.898438 99.34375 93.574219 86.527344 113.953125 Z M 89.199219 154.488281 C 84.988281 157.777344 78.964844 169.597656 79.195312 180.210938 C 85.878906 172.585938 89.003906 164.195312 89.199219 154.488281 Z M 118.910156 126.523438 C 108.070312 130.210938 101.527344 138.285156 99.289062 149.703125 C 98.457031 153.953125 95.75 157.304688 94.695312 161.429688 C 108.753906 153.804688 114.050781 140.132812 118.910156 126.523438 Z M 108.222656 153.621094 C 106.007812 155.726562 103.804688 157.847656 101.5625 159.925781 C 98.796875 162.492188 98.335938 162.324219 92.851562 163.058594 C 91.300781 163.269531 89.734375 165.402344 88.882812 167.273438 C 87.582031 170.140625 86.320312 173.03125 84.914062 176.203125 C 96.066406 172.039062 102.832031 163.546875 108.222656 153.621094 Z M 114.472656 181.800781 C 97.976562 190.039062 87.648438 203.003906 89.226562 224.046875 C 96.316406 208.203125 110.738281 197.789062 114.472656 181.800781 Z M 109.335938 203.445312 C 109.722656 202.539062 109.753906 201.480469 109.9375 200.566406 C 100.066406 208.632812 92.128906 217.671875 90.027344 230.636719 C 92.152344 224.890625 96.542969 220.789062 100.734375 216.90625 C 104.941406 213.011719 107.21875 208.394531 109.335938 203.445312 Z M 49.015625 192.589844 C 46.613281 182.570312 43.378906 173.238281 35.621094 166.007812 C 32.519531 163.113281 31.425781 158.882812 28.894531 154.917969 C 28.1875 161.152344 30.996094 165.675781 34.335938 169.503906 C 39.554688 175.476562 40.960938 182.066406 41.03125 189.824219 C 41.105469 198.546875 44.636719 213.757812 53.941406 217.679688 C 51.011719 209.542969 51.011719 200.890625 49.015625 192.589844 Z M 56.109375 152.445312 C 52.21875 146.160156 50.523438 139.078125 49.007812 131.984375 C 48.023438 127.367188 47.566406 122.636719 46.871094 117.957031 C 46.710938 117.476562 46.554688 117 46.394531 116.523438 C 45.640625 116.902344 45.410156 117.433594 45.917969 118.175781 C 42.730469 133.261719 45.054688 147.328125 53.988281 160.007812 C 56.390625 163.414062 58.332031 167.046875 60.875 171.925781 C 60.695312 164.140625 56.730469 158.695312 56.109375 152.445312 Z M 56.109375 152.445312 "/></g></g></g></g></svg>