<svg xmlns="http://www.w3.org/2000/svg" xmlns:xlink="http://www.w3.org/1999/xlink" width="219" zoomAndPan="magnify" viewBox="0 0 164.25 297.75" height="397" preserveAspectRatio="xMidYMid meet" version="1.2"><defs><clipPath id="4926b207ce"><path d="M 1 0.550781 L 139 0.550781 L 139 296.949219 L 1 296.949219 Z M 1 0.550781 "/></clipPath><clipPath id="24b9b66dc7"><path d="M -113.445312 86.015625 L 28.367188 -20.761719 L 202.890625 211.023438 L 61.078125 317.800781 Z M -113.445312 86.015625 "/></clipPath><clipPath id="1faf79c087"><path d="M -113.445312 86.015625 L 28.367188 -20.761719 L 221.734375 236.046875 L 79.921875 342.824219 Z M -113.445312 86.015625 "/></clipPath></defs><g id="a98dc0c3e1"><g clip-rule="nonzero" clip-path="url(#4926b207ce)"><g clip-rule="nonzero" clip-path="url(#24b9b66dc7)"><g clip-rule="nonzero" clip-path="url(#1faf79c087)"><path style=" stroke:none;fill-rule:nonzero;fill:#c5a65a;fill-opacity:1;" d="M 105.054688 130.988281 C 108.714844 121.589844 109.328125 111.625 104.703125 102.027344 C 103.140625 98.78125 101.367188 95.601562 101.238281 91.863281 C 102.035156 90.953125 100.792969 90.171875 101.070312 89.292969 C 100.832031 85.644531 101.34375 82.070312 102.160156 78.472656 C 98.714844 82.769531 96.953125 87.632812 96.722656 93.0625 C 96.363281 98.242188 97.390625 103.265625 98.40625 108.300781 C 99.828125 115.371094 100.800781 122.484375 100.015625 129.726562 C 99.851562 130.203125 99.691406 130.675781 99.53125 131.152344 C 98.8125 130.769531 98.507812 130.25 98.988281 129.480469 C 98.464844 128.554688 98.058594 127.636719 97.769531 126.5625 C 95.960938 119.773438 94.636719 112.738281 91.835938 106.363281 C 88.539062 98.867188 85.386719 91.539062 84.117188 83.324219 C 82.863281 75.210938 81.179688 67.191406 80.679688 58.941406 C 80.140625 50.121094 75.160156 43.59375 68.992188 37.589844 C 64.730469 33.445312 58.964844 30.523438 57.015625 24.261719 C 56.730469 23.347656 55.898438 23.0625 55.171875 23.269531 C 53.960938 23.617188 54.347656 24.664062 54.664062 25.425781 C 55.519531 27.492188 56.375 29.542969 56.433594 32.195312 C 54.632812 30.230469 54.554688 27.726562 52.832031 26.082031 C 44.511719 18.148438 35.039062 12.207031 24.011719 8.769531 C 17.253906 6.664062 10.101562 5.421875 4.503906 0.585938 C 3.679688 -0.125 3 -1.382812 1.898438 -0.519531 C 0.5 0.570312 1.753906 1.65625 2.445312 2.601562 C 7.816406 9.960938 14.394531 15.972656 22.695312 19.824219 C 27.125 21.878906 30.933594 24.75 34.808594 27.601562 C 35.769531 28.308594 36.578125 28.914062 36.246094 30.117188 C 35.769531 31.863281 34.703125 30.898438 33.859375 30.449219 C 32.730469 29.84375 32.085938 30.601562 31.660156 31.347656 C 31.507812 31.613281 32.019531 32.625 32.429688 32.789062 C 38.261719 35.097656 40.253906 40.933594 43.785156 45.285156 C 49.089844 51.824219 54.25 58.433594 61.703125 62.6875 C 74.121094 69.769531 81.304688 80.621094 84.878906 94.652344 C 76.859375 87.347656 66.75 83.574219 59.007812 75.316406 C 59 79.824219 62.390625 80.746094 64.585938 82.398438 C 73.492188 89.09375 83.527344 94.515625 88.199219 105.609375 C 92.386719 115.546875 96.082031 125.566406 97.210938 137.546875 C 89.734375 128.464844 85.054688 118.980469 79.347656 110.167969 C 74.199219 102.21875 69.410156 93.863281 61.042969 88.613281 C 57.109375 86.144531 52.589844 84.546875 49.5625 80.734375 C 48.925781 79.929688 47.839844 79.71875 47.0625 80.261719 C 45.882812 81.082031 46.976562 81.898438 47.476562 82.523438 C 48.457031 83.746094 48.890625 85.160156 49.449219 86.589844 C 51.707031 92.363281 53.492188 98.59375 57.621094 103.21875 C 63.375 109.664062 71.039062 113.574219 79.1875 116.464844 C 80.648438 116.984375 82.160156 117.429688 83.027344 119.300781 C 84.933594 123.429688 86.828125 127.707031 89.921875 131.082031 C 97.257812 139.085938 99.75 148.628906 100.007812 159.171875 C 100.257812 169.441406 99.925781 179.699219 101.269531 189.980469 C 102.359375 198.355469 99.589844 206.554688 97.394531 215.847656 C 95.390625 211.515625 95.726562 207.988281 95.21875 204.671875 C 93.199219 191.511719 87.121094 179.472656 84.957031 166.335938 C 83.765625 159.101562 77.5625 154.558594 74.464844 146.988281 C 72.277344 152.332031 72.785156 156.410156 72.996094 161.472656 C 69.488281 156.441406 67.796875 151.71875 66.390625 146.847656 C 63.332031 136.253906 56.816406 128.878906 46.351562 124.976562 C 42.410156 123.503906 38.457031 121.785156 34.976562 119.476562 C 32.554688 117.871094 30.734375 118.148438 27.804688 118.835938 C 28.851562 119.53125 29.191406 119.925781 29.589844 119.996094 C 36.886719 121.261719 41.824219 125.660156 45.03125 132.035156 C 47.402344 136.742188 47.808594 142.300781 49.75 146.953125 C 54.824219 159.121094 62.101562 169.882812 74.109375 176.867188 C 83.007812 182.046875 89.882812 189.164062 92.335938 199.917969 C 93.457031 204.835938 93.535156 209.804688 94.484375 214.683594 C 96.074219 222.828125 94.789062 230.96875 92.515625 238.542969 C 89.117188 249.855469 82.878906 260.238281 80.839844 272.148438 C 79.585938 266.449219 79.617188 260.761719 79.425781 255.078125 C 79.121094 245.867188 76.851562 236.828125 77.617188 227.476562 C 79.054688 209.933594 73.621094 194.972656 58.824219 184.625 C 54.121094 181.332031 49.710938 176.691406 41.949219 176.566406 C 47.527344 181.59375 49.148438 187.835938 52.414062 193.128906 C 53.109375 194.261719 56.476562 196.980469 51.710938 198.050781 C 50.667969 198.285156 51.089844 199.8125 51.347656 200.925781 C 52.429688 205.589844 54.28125 210.140625 57.574219 213.339844 C 61.632812 217.277344 64.824219 221.78125 68.109375 226.230469 C 73.40625 233.410156 76.324219 241.609375 76.941406 250.515625 C 77.183594 253.984375 76.808594 257.496094 76.808594 260.988281 C 76.8125 269.441406 79.902344 277.46875 80.503906 285.785156 C 81.445312 298.683594 80.738281 311.574219 78.726562 324.394531 C 77.78125 330.414062 77.90625 336.527344 79.703125 342.535156 C 80.261719 336.847656 81.144531 331.242188 81.789062 325.613281 C 83.238281 312.980469 84.03125 300.339844 83.371094 287.566406 C 82.660156 273.742188 84.242188 260.394531 92.5625 248.359375 C 99.328125 238.566406 105.320312 228.179688 113.96875 219.921875 C 123.367188 210.949219 126.066406 199.421875 126.117188 187.488281 C 126.144531 180.363281 128.304688 175.101562 132.296875 169.765625 C 138.4375 161.554688 138.992188 152.082031 137.578125 142.324219 C 137.433594 141.351562 136.914062 140.394531 135.894531 140.484375 C 135.050781 140.554688 134.804688 141.640625 134.992188 142.375 C 137.039062 150.398438 132.527344 156.21875 128.5 162.261719 C 125.417969 166.894531 120.765625 170.207031 118.214844 175.324219 C 112.933594 185.914062 110.753906 197.308594 108.9375 208.820312 C 107.648438 216.972656 102.886719 223.148438 97.765625 229.953125 C 97.289062 224.554688 98.976562 220.300781 100.039062 216.019531 C 102.914062 204.425781 101.839844 192.347656 104.816406 180.757812 C 106.261719 175.132812 107.707031 169.714844 110.816406 164.664062 C 115.667969 156.789062 120.269531 148.84375 121.542969 139.246094 C 123.15625 127.082031 120.253906 115.417969 118.984375 103.558594 C 118.890625 102.710938 118.421875 101.78125 117.359375 101.96875 C 114.605469 118.296875 114.246094 135.011719 107.25 150.371094 C 107.035156 150.851562 106.707031 151.832031 107.820312 151.972656 C 104.449219 153.875 105.933594 158.59375 102.824219 161.160156 C 102.699219 159.515625 102.726562 158.3125 102.5 157.15625 C 100.738281 148.171875 101.667969 139.6875 105.054688 130.988281 Z M 97.902344 93.375 C 98.976562 92.109375 96.695312 89.152344 100.082031 89.058594 C 99.296875 90 100.546875 90.835938 100.230469 91.753906 C 99.769531 96.316406 101.855469 100.292969 103.574219 104.199219 C 106.914062 111.773438 104.804688 119.082031 103.285156 126.539062 C 102.386719 115.3125 99.164062 104.503906 97.902344 93.375 Z M 59.015625 32.300781 C 77.035156 49.351562 75.703125 42.121094 79.167969 74.78125 C 70.308594 61.160156 60.777344 48.523438 59.015625 32.300781 Z M 8.761719 6.179688 C 19.539062 10.570312 30.460938 12.609375 39.75 18.917969 C 46.371094 23.414062 52.253906 28.746094 56.863281 35.09375 C 59.074219 38.136719 59.097656 42.800781 61.183594 47.390625 C 52.714844 39.257812 42.433594 34.714844 35.09375 26.152344 C 28.03125 17.90625 15.378906 16.523438 8.761719 6.179688 Z M 41.074219 36.964844 C 52.921875 43.894531 64.988281 50.628906 69.886719 64.691406 C 57.300781 58.578125 47.949219 49.074219 41.074219 36.964844 Z M 77.394531 113.292969 C 60.234375 106.296875 55.894531 99.050781 52.53125 86.921875 C 67.125 96.148438 64.507812 92.808594 77.394531 113.292969 Z M 74.707031 154.035156 C 78.941406 157.34375 85 169.222656 84.769531 179.890625 C 78.046875 172.226562 74.90625 163.792969 74.707031 154.035156 Z M 44.832031 125.929688 C 55.734375 129.632812 62.3125 137.75 64.5625 149.226562 C 65.398438 153.5 68.121094 156.867188 69.183594 161.015625 C 55.046875 153.351562 49.71875 139.609375 44.832031 125.929688 Z M 55.578125 153.164062 C 57.808594 155.28125 60.023438 157.414062 62.277344 159.503906 C 65.058594 162.082031 65.519531 161.914062 71.035156 162.652344 C 72.59375 162.863281 74.171875 165.007812 75.027344 166.886719 C 76.335938 169.769531 77.605469 172.675781 79.019531 175.863281 C 67.804688 171.679688 61 163.140625 55.578125 153.164062 Z M 49.296875 181.492188 C 65.882812 189.769531 76.269531 202.804688 74.679688 223.953125 C 67.550781 208.027344 53.050781 197.5625 49.296875 181.492188 Z M 54.460938 203.246094 C 54.070312 202.335938 54.039062 201.273438 53.855469 200.351562 C 63.78125 208.460938 71.761719 217.546875 73.875 230.578125 C 71.738281 224.800781 67.324219 220.679688 63.109375 216.777344 C 58.878906 212.863281 56.589844 208.222656 54.460938 203.246094 Z M 115.113281 192.335938 C 117.53125 182.265625 120.78125 172.882812 128.582031 165.617188 C 131.703125 162.707031 132.800781 158.453125 135.347656 154.46875 C 136.058594 160.734375 133.234375 165.28125 129.875 169.128906 C 124.628906 175.132812 123.214844 181.757812 123.144531 189.554688 C 123.070312 198.324219 119.519531 213.613281 110.160156 217.554688 C 113.109375 209.375 113.109375 200.679688 115.113281 192.335938 Z M 107.980469 151.984375 C 111.894531 145.664062 113.597656 138.546875 115.121094 131.417969 C 116.113281 126.777344 116.574219 122.019531 117.273438 117.316406 C 117.433594 116.835938 117.589844 116.355469 117.75 115.875 C 118.507812 116.257812 118.742188 116.792969 118.230469 117.539062 C 121.433594 132.699219 119.097656 146.839844 110.113281 159.585938 C 107.699219 163.007812 105.746094 166.660156 103.191406 171.566406 C 103.371094 163.738281 107.359375 158.265625 107.980469 151.984375 Z M 107.980469 151.984375 "/></g></g></g></g></svg>